# Blender 4.4.1
# www.blender.org
mtllib Arrow.mtl
o Cylinder
v -0.238074 -0.000000 -0.028925
v 0.540859 0.000000 -0.028925
v -0.238074 -0.005643 -0.028369
v 0.540859 -0.005643 -0.028369
v -0.238074 -0.011069 -0.026723
v 0.540859 -0.011069 -0.026723
v -0.238074 -0.016070 -0.024050
v 0.540859 -0.016070 -0.024050
v -0.238074 -0.020453 -0.020453
v 0.540859 -0.020453 -0.020453
v -0.238074 -0.024050 -0.016070
v 0.540859 -0.024050 -0.016070
v -0.238074 -0.026723 -0.011069
v 0.540859 -0.026723 -0.011069
v -0.238074 -0.028369 -0.005643
v 0.540859 -0.028369 -0.005643
v -0.238074 -0.028925 0.000000
v 0.540859 -0.028924 0.000000
v -0.238074 -0.028369 0.005643
v 0.540859 -0.028369 0.005643
v -0.238074 -0.026723 0.011069
v 0.540859 -0.026723 0.011069
v -0.238074 -0.024050 0.016070
v 0.540859 -0.024050 0.016070
v -0.238074 -0.020453 0.020453
v 0.540859 -0.020453 0.020453
v -0.238074 -0.016070 0.024050
v 0.540859 -0.016070 0.024050
v -0.238074 -0.011069 0.026723
v 0.540859 -0.011069 0.026723
v -0.238074 -0.005643 0.028369
v 0.540859 -0.005643 0.028369
v -0.238074 -0.000000 0.028925
v 0.540859 0.000000 0.028925
v -0.238074 0.005643 0.028369
v 0.540859 0.005643 0.028369
v -0.238074 0.011069 0.026723
v 0.540859 0.011069 0.026723
v -0.238074 0.016070 0.024050
v 0.540859 0.016070 0.024050
v -0.238074 0.020453 0.020453
v 0.540859 0.020453 0.020453
v -0.238074 0.024050 0.016070
v 0.540859 0.024050 0.016070
v -0.238074 0.026723 0.011069
v 0.540859 0.026723 0.011069
v -0.238074 0.028369 0.005643
v 0.540859 0.028369 0.005643
v -0.238074 0.028924 0.000000
v 0.540859 0.028925 0.000000
v -0.238074 0.028369 -0.005643
v 0.540859 0.028369 -0.005643
v -0.238074 0.026723 -0.011069
v 0.540859 0.026723 -0.011069
v -0.238074 0.024050 -0.016070
v 0.540859 0.024050 -0.016070
v -0.238074 0.020453 -0.020453
v 0.540859 0.020453 -0.020453
v -0.238074 0.016070 -0.024050
v 0.540859 0.016070 -0.024050
v -0.238074 0.011069 -0.026723
v 0.540859 0.011069 -0.026723
v -0.238074 0.005643 -0.028369
v 0.540859 0.005643 -0.028369
v -0.221616 -0.001103 -0.073369
v -0.222090 0.000286 -0.073122
v -0.224479 0.002955 -0.071662
v -0.223882 0.007200 -0.067733
v -0.226879 0.011568 -0.061447
v -0.230312 0.016354 -0.049105
v -0.234633 0.020368 -0.034700
v -0.234948 0.022855 -0.019009
v -0.235263 0.023707 -0.002408
v -0.231452 0.022853 0.014218
v -0.230342 0.020219 0.030788
v -0.221797 0.015974 0.050523
v -0.218000 0.012836 0.058864
v -0.211649 0.009699 0.062262
v -0.206835 0.005462 0.065214
v -0.204017 0.002522 0.066273
v -0.203177 0.000640 0.066379
v -0.204233 -0.001302 0.065924
v -0.207163 -0.004269 0.064252
v -0.211961 -0.008242 0.060422
v -0.218633 -0.013373 0.052719
v -0.222377 -0.019979 0.040983
v -0.224435 -0.022631 0.035030
v -0.232038 -0.025040 0.014871
v -0.231792 -0.025926 -0.002374
v -0.231464 -0.025064 -0.019008
v -0.231104 -0.022556 -0.034777
v -0.225500 -0.018508 -0.049213
v -0.229199 -0.013712 -0.061516
v -0.225793 -0.009354 -0.067735
v -0.226274 -0.005134 -0.071649
v -0.223082 -0.002455 -0.073107
v -0.438066 -0.001109 -0.002375
v -0.053534 -0.000000 -0.028925
v -0.053534 -0.005643 -0.028369
v -0.053534 -0.011069 -0.026723
v -0.053534 -0.016070 -0.024050
v -0.053534 -0.020453 -0.020453
v -0.053534 -0.024050 -0.016070
v -0.053534 -0.026723 -0.011069
v -0.053534 -0.028369 -0.005643
v -0.053534 -0.028925 0.000000
v -0.053534 -0.028369 0.005643
v -0.053534 -0.026723 0.011069
v -0.053534 -0.024050 0.016070
v -0.053534 -0.020453 0.020453
v -0.053534 -0.016070 0.024050
v -0.053534 -0.011069 0.026723
v -0.053534 -0.005643 0.028369
v -0.053534 -0.000000 0.028925
v -0.053534 0.005643 0.028369
v -0.053534 0.011069 0.026723
v -0.053534 0.016070 0.024050
v -0.053534 0.020453 0.020453
v -0.053534 0.024050 0.016070
v -0.053534 0.026723 0.011069
v -0.053534 0.028369 0.005643
v -0.053534 0.028924 0.000000
v -0.053534 0.028369 -0.005643
v -0.053534 0.026723 -0.011069
v -0.053534 0.024050 -0.016070
v -0.053534 0.020453 -0.020453
v -0.053534 0.016070 -0.024050
v -0.053534 0.011069 -0.026723
v -0.053534 0.005643 -0.028369
v -0.219816 -0.001109 -0.101244
v -0.220619 0.009108 -0.099498
v -0.222996 0.018932 -0.094327
v -0.222170 0.027986 -0.085931
v -0.224809 0.035921 -0.074632
v -0.227852 0.042434 -0.057932
v -0.231898 0.047274 -0.040643
v -0.231898 0.050254 -0.021884
v -0.231898 0.051260 -0.002375
v -0.227757 0.050254 0.017135
v -0.226383 0.047274 0.035894
v -0.217500 0.042434 0.058362
v -0.212807 0.036746 0.073463
v -0.205471 0.028119 0.082919
v -0.199936 0.018566 0.089662
v -0.196414 0.008454 0.093433
v -0.195040 -0.001830 0.094087
v -0.195868 -0.011890 0.091599
v -0.198865 -0.021339 0.086065
v -0.203916 -0.029814 0.077697
v -0.210827 -0.036989 0.066816
v -0.214723 -0.044651 0.053183
v -0.217214 -0.049491 0.042252
v -0.225338 -0.052471 0.017135
v -0.225338 -0.053477 -0.002375
v -0.225338 -0.052471 -0.021884
v -0.225338 -0.049491 -0.040643
v -0.220097 -0.044651 -0.057932
v -0.224383 -0.038139 -0.074632
v -0.221744 -0.030203 -0.085931
v -0.222996 -0.021149 -0.094327
v -0.220619 -0.011325 -0.099498
vn -0.0000 -0.0980 -0.9952
vn -0.0000 -0.2903 -0.9569
vn -0.0000 -0.4714 -0.8819
vn -0.0000 -0.6344 -0.7730
vn -0.0000 -0.7730 -0.6344
vn -0.0000 -0.8819 -0.4714
vn -0.0000 -0.9569 -0.2903
vn -0.0000 -0.9952 -0.0980
vn -0.0000 -0.9952 0.0980
vn -0.0000 -0.9569 0.2903
vn -0.0000 -0.8819 0.4714
vn -0.0000 -0.7730 0.6344
vn -0.0000 -0.6344 0.7730
vn -0.0000 -0.4714 0.8819
vn -0.0000 -0.2903 0.9569
vn -0.0000 -0.0980 0.9952
vn -0.0000 0.0980 0.9952
vn -0.0000 0.2903 0.9569
vn -0.0000 0.4714 0.8819
vn -0.0000 0.6344 0.7730
vn -0.0000 0.7730 0.6344
vn -0.0000 0.8819 0.4714
vn -0.0000 0.9569 0.2903
vn -0.0000 0.9952 0.0980
vn -0.0000 0.9952 -0.0980
vn -0.0000 0.9569 -0.2903
vn -0.0000 0.8819 -0.4714
vn -0.0000 0.7730 -0.6344
vn -0.0000 0.6344 -0.7730
vn -0.0000 0.4714 -0.8819
vn 1.0000 -0.0000 -0.0000
vn -0.0000 0.2903 -0.9569
vn -0.0000 0.0980 -0.9952
vn -1.0000 -0.0000 -0.0000
vn -0.4095 0.1223 -0.9041
vn -0.3956 0.3510 -0.8487
vn -0.3480 0.6543 -0.6714
vn -0.3286 0.7351 -0.5930
vn -0.2849 0.8743 -0.3929
vn -0.2721 0.9082 -0.3179
vn -0.2524 0.9556 -0.1518
vn -0.2459 0.9680 -0.0499
vn -0.2449 0.9642 0.1017
vn -0.2486 0.9536 0.1697
vn -0.2639 0.9162 0.3017
vn -0.2847 0.8645 0.4142
vn -0.3485 0.5419 0.7648
vn -0.3598 0.3898 0.8477
vn -0.3675 0.2099 0.9060
vn -0.3689 0.0098 0.9294
vn -0.3623 -0.1956 0.9113
vn -0.3482 -0.3891 0.8529
vn -0.3291 -0.5569 0.7626
vn -0.3080 -0.6925 0.6523
vn -0.2874 -0.7976 0.5304
vn -0.2762 -0.8540 0.4410
vn -0.2470 -0.9497 0.1926
vn -0.2387 -0.9698 0.0500
vn -0.2387 -0.9698 -0.0500
vn -0.2451 -0.9575 -0.1521
vn -0.2657 -0.9044 -0.3337
vn -0.2585 -0.9206 -0.2927
vn -0.3280 -0.7354 -0.5930
vn -0.3456 -0.6633 -0.6637
vn 0.9929 0.0619 -0.1017
vn -0.3956 -0.3510 -0.8487
vn -0.4095 -0.1223 -0.9041
vn 0.9925 0.0962 0.0755
vn 0.9467 0.2609 0.1890
vn 0.9952 -0.0974 -0.0098
vn 0.9650 0.0903 0.2461
vn 0.9765 0.0063 0.2153
vn 0.9651 -0.0219 0.2609
vn 0.9945 -0.1018 0.0252
vn 0.9932 -0.1152 0.0146
vn 0.9692 -0.1128 -0.2191
vn 0.9880 -0.1257 -0.0894
vn 0.9196 -0.0475 -0.3900
vn 0.9374 -0.0217 -0.3477
vn 0.7724 0.2710 -0.5745
vn 0.8355 0.3062 -0.4563
vn 0.8850 0.2972 -0.3583
vn 0.9470 0.1548 -0.2814
vn 0.9477 -0.0726 -0.3107
vn 0.8899 -0.1820 -0.4183
vn 0.8424 -0.1632 -0.5136
vn 0.8313 -0.0892 -0.5486
vn 0.9325 0.1115 -0.3435
vn 0.9359 0.1500 -0.3187
vn 0.9230 0.1770 -0.3417
vn 0.9726 0.2325 -0.0055
vn 0.9748 0.2221 0.0203
vn 0.9774 0.2069 0.0431
vn 0.9324 0.1009 0.3470
vn 0.9518 0.2615 -0.1601
vn 0.9507 -0.0274 0.3088
vn 0.9867 0.1594 0.0331
vn 0.9268 -0.2800 0.2504
vn 0.9792 -0.1737 0.1053
vt 0.499316 0.530498
vt 0.499316 0.917224
vt 0.507030 0.917224
vt 0.507030 0.530498
vt 0.514448 0.917224
vt 0.514448 0.530498
vt 0.521284 0.917224
vt 0.521284 0.530498
vt 0.527276 0.917224
vt 0.527276 0.530498
vt 0.526309 0.530498
vt 0.526309 0.917224
vt 0.520317 0.917224
vt 0.520317 0.530498
vt 0.513481 0.917224
vt 0.513481 0.530498
vt 0.506063 0.917224
vt 0.506063 0.530498
vt 0.498349 0.917224
vt 0.498349 0.530498
vt 0.490635 0.917224
vt 0.490635 0.530498
vt 0.483218 0.917224
vt 0.483218 0.530498
vt 0.476381 0.917224
vt 0.476381 0.530498
vt 0.470390 0.917224
vt 0.470390 0.530498
vt 0.491602 0.917224
vt 0.491602 0.530498
vt 0.484185 0.917224
vt 0.484185 0.530498
vt 0.477349 0.917224
vt 0.477349 0.530498
vt 0.471357 0.917224
vt 0.471357 0.530498
vt 0.507030 0.537131
vt 0.499316 0.537890
vt 0.491602 0.537131
vt 0.484185 0.534880
vt 0.477349 0.531226
vt 0.471357 0.526309
vt 0.466439 0.520317
vt 0.462785 0.513481
vt 0.460535 0.506063
vt 0.459775 0.498349
vt 0.460535 0.490635
vt 0.462785 0.483218
vt 0.466439 0.476381
vt 0.471357 0.470390
vt 0.477349 0.465472
vt 0.484185 0.461818
vt 0.491602 0.459568
vt 0.499316 0.458808
vt 0.507030 0.459568
vt 0.514448 0.461818
vt 0.521284 0.465472
vt 0.527276 0.470390
vt 0.532194 0.476381
vt 0.535848 0.483218
vt 0.538098 0.490635
vt 0.538857 0.498349
vt 0.538098 0.506063
vt 0.535848 0.513481
vt 0.532194 0.520317
vt 0.527276 0.526309
vt 0.521284 0.531226
vt 0.514448 0.534880
vt 0.466439 0.476381
vt 0.466439 0.520317
vt 0.500832 0.422311
vt 0.500832 0.280312
vt 0.486865 0.421788
vt 0.473436 0.420242
vt 0.473436 0.627299
vt 0.500832 0.501595
vt 0.461059 0.615821
vt 0.615821 0.420779
vt 0.501595 0.280312
vt 0.600374 0.419062
vt 0.577544 0.417082
vt 0.553910 0.414450
vt 0.528265 0.414450
vt 0.501595 0.414450
vt 0.474926 0.417144
vt 0.449281 0.418038
vt 0.418566 0.423817
vt 0.397922 0.426871
vt 0.449084 0.426871
vt 0.460876 0.431644
vt 0.473936 0.435245
vt 0.487760 0.437537
vt 0.501818 0.438430
vt 0.515570 0.437892
vt 0.528487 0.435942
vt 0.540073 0.432656
vt 0.392135 0.432656
vt 0.407009 0.428159
vt 0.425647 0.425624
vt 0.440590 0.424003
vt 0.474926 0.418718
vt 0.501595 0.418718
vt 0.528265 0.418718
vt 0.553910 0.418718
vt 0.577544 0.422128
vt 0.600374 0.419340
vt 0.615821 0.421056
vt 0.540605 0.615821
vt 0.528228 0.627299
vt 0.500824 0.598648
vt 0.498925 0.598310
vt 0.495276 0.596314
vt 0.489473 0.590943
vt 0.483502 0.582350
vt 0.476959 0.565479
vt 0.471473 0.545786
vt 0.468073 0.524335
vt 0.466908 0.501641
vt 0.468076 0.478913
vt 0.471676 0.456260
vt 0.477479 0.429282
vt 0.481769 0.417880
vt 0.486058 0.413235
vt 0.491850 0.409199
vt 0.495868 0.407751
vt 0.498441 0.407607
vt 0.501097 0.408229
vt 0.505152 0.410514
vt 0.510583 0.415750
vt 0.517597 0.426280
vt 0.526628 0.442324
vt 0.530254 0.450462
vt 0.533547 0.478020
vt 0.534758 0.501595
vt 0.533580 0.524334
vt 0.530151 0.545891
vt 0.524618 0.565625
vt 0.518061 0.582444
vt 0.512103 0.590946
vt 0.506335 0.596297
vt 0.502672 0.598290
vt 0.528228 0.420242
vt 0.514798 0.421788
vt 0.491602 0.410431
vt 0.499316 0.410431
vt 0.484185 0.410431
vt 0.477349 0.410431
vt 0.471357 0.410431
vt 0.520317 0.410431
vt 0.526309 0.410431
vt 0.513481 0.410431
vt 0.506063 0.410431
vt 0.498349 0.410431
vt 0.490635 0.410431
vt 0.483218 0.410431
vt 0.476381 0.410431
vt 0.470390 0.410431
vt 0.507030 0.410431
vt 0.514448 0.410431
vt 0.521284 0.410431
vt 0.527276 0.410431
vt 0.500832 0.636753
vt 0.486865 0.634367
vt 0.450210 0.600374
vt 0.441307 0.577544
vt 0.434691 0.553910
vt 0.430618 0.528265
vt 0.429242 0.501595
vt 0.430618 0.474926
vt 0.434691 0.449281
vt 0.441307 0.418566
vt 0.449084 0.397922
vt 0.460876 0.384996
vt 0.473936 0.375778
vt 0.487760 0.370622
vt 0.501818 0.369728
vt 0.515570 0.373129
vt 0.528487 0.380695
vt 0.540073 0.392135
vt 0.549882 0.407009
vt 0.560356 0.425647
vt 0.566972 0.440590
vt 0.571046 0.474926
vt 0.572422 0.501595
vt 0.571046 0.528265
vt 0.566972 0.553910
vt 0.560356 0.577544
vt 0.551453 0.600374
vt 0.514798 0.634367
s 0
usemtl Material
f 98/1/1 2/2/1 4/3/1 99/4/1
f 99/4/2 4/3/2 6/5/2 100/6/2
f 100/6/3 6/5/3 8/7/3 101/8/3
f 101/8/4 8/7/4 10/9/4 102/10/4
f 102/11/5 10/12/5 12/13/5 103/14/5
f 103/14/6 12/13/6 14/15/6 104/16/6
f 104/16/7 14/15/7 16/17/7 105/18/7
f 105/18/8 16/17/8 18/19/8 106/20/8
f 106/20/9 18/19/9 20/21/9 107/22/9
f 107/22/10 20/21/10 22/23/10 108/24/10
f 108/24/11 22/23/11 24/25/11 109/26/11
f 109/26/12 24/25/12 26/27/12 110/28/12
f 110/10/13 26/9/13 28/7/13 111/8/13
f 111/8/14 28/7/14 30/5/14 112/6/14
f 112/6/15 30/5/15 32/3/15 113/4/15
f 113/4/16 32/3/16 34/2/16 114/1/16
f 114/1/17 34/2/17 36/29/17 115/30/17
f 115/30/18 36/29/18 38/31/18 116/32/18
f 116/32/19 38/31/19 40/33/19 117/34/19
f 117/34/20 40/33/20 42/35/20 118/36/20
f 118/28/21 42/27/21 44/25/21 119/26/21
f 119/26/22 44/25/22 46/23/22 120/24/22
f 120/24/23 46/23/23 48/21/23 121/22/23
f 121/22/24 48/21/24 50/19/24 122/20/24
f 122/20/25 50/19/25 52/17/25 123/18/25
f 123/18/26 52/17/26 54/15/26 124/16/26
f 124/16/27 54/15/27 56/13/27 125/14/27
f 125/14/28 56/13/28 58/12/28 126/11/28
f 126/36/29 58/35/29 60/33/29 127/34/29
f 127/34/30 60/33/30 62/31/30 128/32/30
f 4/37/31 2/38/31 64/39/31 62/40/31 60/41/31 58/42/31 56/43/31 54/44/31 52/45/31 50/46/31 48/47/31 46/48/31 44/49/31 42/50/31 40/51/31 38/52/31 36/53/31 34/54/31 32/55/31 30/56/31 28/57/31 26/58/31 24/59/31 22/60/31 20/61/31 18/62/31 16/63/31 14/64/31 12/65/31 10/66/31 8/67/31 6/68/31
f 128/32/32 62/31/32 64/29/32 129/30/32
f 129/30/33 64/29/33 2/2/33 98/1/33
f 1/38/34 3/37/34 5/68/34 7/67/34 9/66/34 11/65/34 13/64/34 15/63/34 17/62/34 19/61/34 21/60/34 23/59/34 25/58/34 27/57/34 29/56/34 31/55/34 33/54/34 35/53/34 37/52/34 39/51/34 41/50/34 43/69/34 45/48/34 47/47/34 49/46/34 51/45/34 53/44/34 55/70/34 57/42/34 59/41/34 61/40/34 63/39/34
f 130/71/35 97/72/35 131/73/35
f 131/73/36 97/72/36 132/74/36
f 132/75/37 97/76/37 133/77/37
f 133/78/38 97/79/38 134/80/38
f 134/80/39 97/79/39 135/81/39
f 135/81/40 97/79/40 136/82/40
f 136/82/41 97/79/41 137/83/41
f 137/83/42 97/79/42 138/84/42
f 138/84/43 97/79/43 139/85/43
f 139/85/44 97/79/44 140/86/44
f 140/86/45 97/79/45 141/87/45
f 141/87/46 97/79/46 142/88/46
f 142/89/47 97/72/47 143/90/47
f 143/90/48 97/72/48 144/91/48
f 144/91/49 97/72/49 145/92/49
f 145/92/50 97/72/50 146/93/50
f 146/93/51 97/72/51 147/94/51
f 147/94/52 97/72/52 148/95/52
f 148/95/53 97/72/53 149/96/53
f 149/97/54 97/79/54 150/98/54
f 150/98/55 97/79/55 151/99/55
f 151/99/56 97/79/56 152/100/56
f 152/100/57 97/79/57 153/101/57
f 153/101/58 97/79/58 154/102/58
f 154/102/59 97/79/59 155/103/59
f 155/103/60 97/79/60 156/104/60
f 156/104/61 97/79/61 157/105/61
f 157/105/62 97/79/62 158/106/62
f 158/106/63 97/79/63 159/107/63
f 159/108/64 97/76/64 160/109/64
f 65/110/65 66/111/65 67/112/65 68/113/65 69/114/65 70/115/65 71/116/65 72/117/65 73/118/65 74/119/65 75/120/65 76/121/65 77/122/65 78/123/65 79/124/65 80/125/65 81/126/65 82/127/65 83/128/65 84/129/65 85/130/65 86/131/65 87/132/65 88/133/65 89/134/65 90/135/65 91/136/65 92/137/65 93/138/65 94/139/65 95/140/65 96/141/65
f 160/142/66 97/72/66 161/143/66
f 161/143/67 97/72/67 130/71/67
f 63/144/33 129/30/33 98/1/33 1/145/33
f 61/146/32 128/32/32 129/30/32 63/144/32
f 59/147/30 127/34/30 128/32/30 61/146/30
f 57/148/29 126/36/29 127/34/29 59/147/29
f 55/149/28 125/14/28 126/11/28 57/150/28
f 53/151/27 124/16/27 125/14/27 55/149/27
f 51/152/26 123/18/26 124/16/26 53/151/26
f 49/153/25 122/20/25 123/18/25 51/152/25
f 47/154/24 121/22/24 122/20/24 49/153/24
f 45/155/23 120/24/23 121/22/23 47/154/23
f 43/156/22 119/26/22 120/24/22 45/155/22
f 41/157/21 118/28/21 119/26/21 43/156/21
f 39/147/20 117/34/20 118/36/20 41/148/20
f 37/146/19 116/32/19 117/34/19 39/147/19
f 35/144/18 115/30/18 116/32/18 37/146/18
f 33/145/17 114/1/17 115/30/17 35/144/17
f 31/158/16 113/4/16 114/1/16 33/145/16
f 29/159/15 112/6/15 113/4/15 31/158/15
f 27/160/14 111/8/14 112/6/14 29/159/14
f 25/161/13 110/10/13 111/8/13 27/160/13
f 23/156/12 109/26/12 110/28/12 25/157/12
f 21/155/11 108/24/11 109/26/11 23/156/11
f 19/154/10 107/22/10 108/24/10 21/155/10
f 17/153/9 106/20/9 107/22/9 19/154/9
f 15/152/8 105/18/8 106/20/8 17/153/8
f 13/151/7 104/16/7 105/18/7 15/152/7
f 11/149/6 103/14/6 104/16/6 13/151/6
f 9/150/5 102/11/5 103/14/5 11/149/5
f 7/160/4 101/8/4 102/10/4 9/161/4
f 5/159/3 100/6/3 101/8/3 7/160/3
f 3/158/2 99/4/2 100/6/2 5/159/2
f 1/145/1 98/1/1 99/4/1 3/158/1
f 66/111/68 65/110/68 130/162/68 131/163/68
f 67/112/69 66/111/69 131/163/69 132/75/69
f 68/113/70 67/112/70 132/75/70 133/77/70
f 69/114/71 68/113/71 133/77/71 134/164/71
f 70/115/72 69/114/72 134/164/72 135/165/72
f 71/116/73 70/115/73 135/165/73 136/166/73
f 72/117/74 71/116/74 136/166/74 137/167/74
f 73/118/75 72/117/75 137/167/75 138/168/75
f 74/119/76 73/118/76 138/168/76 139/169/76
f 75/120/77 74/119/77 139/169/77 140/170/77
f 76/121/78 75/120/78 140/170/78 141/171/78
f 77/122/79 76/121/79 141/171/79 142/172/79
f 78/123/80 77/122/80 142/172/80 143/173/80
f 79/124/81 78/123/81 143/173/81 144/174/81
f 80/125/82 79/124/82 144/174/82 145/175/82
f 81/126/83 80/125/83 145/175/83 146/176/83
f 82/127/84 81/126/84 146/176/84 147/177/84
f 83/128/85 82/127/85 147/177/85 148/178/85
f 84/129/86 83/128/86 148/178/86 149/179/86
f 85/130/87 84/129/87 149/179/87 150/180/87
f 86/131/88 85/130/88 150/180/88 151/181/88
f 87/132/89 86/131/89 151/181/89 152/182/89
f 88/133/90 87/132/90 152/182/90 153/183/90
f 89/134/91 88/133/91 153/183/91 154/184/91
f 90/135/92 89/134/92 154/184/92 155/185/92
f 91/136/93 90/135/93 155/185/93 156/186/93
f 92/137/94 91/136/94 156/186/94 157/187/94
f 93/138/95 92/137/95 157/187/95 158/188/95
f 94/139/96 93/138/96 158/188/96 159/108/96
f 95/140/97 94/139/97 159/108/97 160/109/97
f 96/141/98 95/140/98 160/109/98 161/189/98
f 65/110/99 96/141/99 161/189/99 130/162/99
