# Blender 4.4.1
# www.blender.org
mtllib chest.mtl
o Bottom
v -0.576207 -0.355946 1.123210
v -0.576207 0.355946 1.123210
v -0.720258 -0.355946 -0.898568
v -0.720258 0.355946 -0.898568
v 0.720258 -0.355946 0.898568
v 0.720258 0.355946 0.898568
v 0.720258 -0.355946 -0.898568
v 0.720258 0.355946 -0.898568
v 0.576207 0.355946 -1.123210
v 0.576207 -0.355946 -1.123210
v 0.576207 -0.355946 1.123210
v 0.576207 0.355946 1.123210
v -0.720258 -0.355946 0.898568
v -0.720258 0.355946 0.898568
v 0.720258 0.444933 1.123210
v -0.576207 -0.355946 -1.123210
v -0.720258 0.444933 1.123210
v -0.576207 0.355946 -1.123210
v -0.720258 0.444933 -1.123210
v 0.720258 0.444933 -1.123210
v -0.720258 -0.444933 -1.123210
v -0.720258 -0.444933 1.123210
v 0.720258 -0.444933 -1.123210
v 0.720258 -0.444933 1.123210
v -0.576207 -0.355946 1.035565
v -0.576207 0.355946 1.035565
v 0.576207 0.355946 1.035565
v 0.576207 -0.355946 1.035565
v -0.576207 0.355946 -1.035565
v -0.576207 -0.355946 -1.035565
v 0.576207 -0.355946 -1.035565
v 0.576207 0.355946 -1.035565
v 0.613150 0.355946 -0.898568
v 0.613150 -0.355946 -0.898568
v 0.613150 -0.355946 0.898568
v 0.613150 0.355946 0.898568
v -0.613150 -0.355946 -0.898568
v -0.613150 -0.355946 0.898568
v -0.613150 0.355946 0.898568
v -0.613150 0.355946 -0.898568
vn -0.0000 1.0000 -0.0000
vn -0.0000 -1.0000 -0.0000
vn -1.0000 -0.0000 -0.0000
vn 1.0000 -0.0000 -0.0000
vn -0.0000 -0.0000 1.0000
vn -0.0000 -0.0000 -1.0000
vt 0.400000 0.225000
vt 0.400000 0.025000
vt 0.400000 0.475000
vt 0.400000 0.275000
vt 0.600000 0.025000
vt 0.600000 0.225000
vt 0.600000 0.475000
vt 0.625000 0.500000
vt 0.875000 0.500000
vt 0.875000 0.750000
vt 0.625000 0.750000
vt 0.600000 0.525000
vt 0.400000 0.525000
vt 0.375000 0.500000
vt 0.400000 0.725000
vt 0.375000 0.750000
vt 0.600000 0.725000
vt 0.400000 0.975000
vt 0.600000 0.975000
vt 0.625000 1.000000
vt 0.375000 1.000000
vt 0.600000 0.775000
vt 0.400000 0.775000
vt 0.375000 0.250000
vt 0.375000 0.000000
vt 0.625000 0.000000
vt 0.625000 0.250000
vt 0.600000 0.275000
vt 0.125000 0.500000
vt 0.125000 0.750000
s 0
usemtl Material.002
f 30/4/6 29/28/6 32/7/6 31/3/6
f 28/23/5 27/22/5 26/19/5 25/18/5
f 38/2/3 39/5/3 40/6/3 37/1/3
f 34/13/4 33/12/4 36/17/4 35/15/4
f 21/29/2 23/14/2 24/16/2 22/30/2
usemtl Material.003
f 3/1/1 13/2/1 38/2/1 37/1/1
f 10/3/1 16/4/1 30/4/1 31/3/1
f 14/5/2 4/6/2 40/6/2 39/5/2
f 9/7/3 10/3/3 31/3/3 32/7/3
f 20/8/1 19/9/1 17/10/1 15/11/1
f 8/12/4 7/13/4 23/14/4 20/8/4
f 7/13/4 5/15/4 24/16/4 23/14/4
f 6/17/4 8/12/4 20/8/4 15/11/4
f 5/15/4 6/17/4 15/11/4 24/16/4
f 1/18/5 2/19/5 17/20/5 22/21/5
f 12/22/5 11/23/5 24/16/5 15/11/5
f 11/23/5 1/18/5 22/21/5 24/16/5
f 2/19/5 12/22/5 15/11/5 17/20/5
f 13/2/3 3/1/3 21/24/3 22/25/3
f 14/5/3 13/2/3 22/25/3 17/26/3
f 4/6/3 14/5/3 17/26/3 19/27/3
f 3/1/3 4/6/3 19/27/3 21/24/3
f 18/28/6 16/4/6 21/24/6 19/27/6
f 16/4/6 10/3/6 23/14/6 21/24/6
f 9/7/6 18/28/6 19/27/6 20/8/6
f 10/3/6 9/7/6 20/8/6 23/14/6
f 1/18/1 11/23/1 28/23/1 25/18/1
f 2/19/4 1/18/4 25/18/4 26/19/4
f 18/28/2 9/7/2 32/7/2 29/28/2
f 16/4/4 18/28/4 29/28/4 30/4/4
f 12/22/2 2/19/2 26/19/2 27/22/2
f 11/23/3 12/22/3 27/22/3 28/23/3
f 6/17/6 5/15/6 35/15/6 36/17/6
f 5/15/1 7/13/1 34/13/1 35/15/1
f 4/6/5 3/1/5 37/1/5 40/6/5
f 13/2/6 14/5/6 39/5/6 38/2/6
f 8/12/2 6/17/2 36/17/2 33/12/2
f 7/13/5 8/12/5 33/12/5 34/13/5
o Top
v 0.000000 0.439540 -1.124117
v 0.000000 0.439540 1.124117
v 0.000000 1.165117 -1.124117
v 0.141553 1.151175 -1.124117
v 0.141553 1.151175 1.124117
v 0.000000 1.165116 1.124117
v 0.277666 1.109885 -1.124117
v 0.277666 1.109885 1.124117
v 0.403109 1.042835 -1.124117
v 0.403109 1.042835 1.124117
v 0.513060 0.952600 -1.124117
v 0.513060 0.952600 1.124117
v 0.603295 0.842649 -1.124117
v 0.603295 0.842649 1.124117
v 0.670345 0.717206 -1.124117
v 0.670345 0.717206 1.124117
v 0.711635 0.581093 -1.124117
v 0.711635 0.581093 1.124117
v 0.725576 0.439540 -1.124117
v 0.725576 0.439540 1.124117
v -0.725576 0.439540 -1.124117
v -0.725576 0.439540 1.124117
v -0.711635 0.581093 -1.124117
v -0.711635 0.581093 1.124117
v -0.670345 0.717206 -1.124117
v -0.670345 0.717206 1.124117
v -0.603295 0.842649 -1.124117
v -0.603295 0.842649 1.124117
v -0.513060 0.952600 -1.124117
v -0.513060 0.952600 1.124117
v -0.403109 1.042835 -1.124117
v -0.403109 1.042835 1.124117
v -0.277666 1.109885 -1.124117
v -0.277666 1.109885 1.124117
v -0.141553 1.151175 -1.124117
v -0.141553 1.151175 1.124117
v 0.000000 1.069402 -1.124117
v 0.122880 1.057300 -1.124117
v 0.122880 1.057300 1.124117
v 0.000000 1.069402 1.124117
v 0.241038 1.021457 -1.124117
v 0.241038 1.021457 1.124117
v 0.349933 0.963251 -1.124117
v 0.349933 0.963251 1.124117
v 0.445380 0.884920 -1.124117
v 0.445380 0.884920 1.124117
v 0.523711 0.789473 -1.124117
v 0.523711 0.789473 1.124117
v 0.581917 0.680578 -1.124117
v 0.581917 0.680578 1.124117
v 0.617760 0.562420 -1.124117
v 0.617760 0.562420 1.124117
v 0.629862 0.439540 -1.124117
v 0.629862 0.439540 1.124117
v -0.629862 0.439540 -1.124117
v -0.629862 0.439540 1.124117
v -0.617760 0.562420 -1.124117
v -0.617760 0.562420 1.124117
v -0.581917 0.680578 -1.124117
v -0.581917 0.680578 1.124117
v -0.523711 0.789473 -1.124117
v -0.523711 0.789473 1.124117
v -0.445380 0.884920 -1.124117
v -0.445380 0.884920 1.124117
v -0.349933 0.963251 -1.124117
v -0.349933 0.963251 1.124117
v -0.241038 1.021457 -1.124117
v -0.241038 1.021457 1.124117
v -0.122880 1.057300 -1.124117
v -0.122880 1.057300 1.124117
v 0.478928 0.439540 -1.124117
v 0.478928 0.439540 1.124117
v -0.478928 0.439540 -1.124117
v -0.478928 0.439540 1.124117
v 0.363497 0.439540 -1.124117
v 0.363497 0.439540 1.124117
v -0.363497 0.439540 -1.124117
v -0.363497 0.439540 1.124117
v 0.173646 0.439540 -1.124117
v 0.173646 0.439540 1.124117
v -0.173646 0.439540 -1.124117
v -0.173646 0.439540 1.124117
v 0.000000 1.069402 -1.056883
v 0.122880 1.057300 -1.056883
v 0.122880 1.057300 1.056883
v 0.000000 1.069402 1.056883
v 0.241038 1.021457 -1.056883
v 0.241038 1.021457 1.056883
v 0.349933 0.963251 -1.056883
v 0.349933 0.963251 1.056883
v 0.445380 0.884920 -1.056883
v 0.445380 0.884920 1.056883
v 0.523711 0.789473 -1.056883
v 0.523711 0.789473 1.056883
v 0.581917 0.680578 -1.056883
v 0.581917 0.680578 1.056883
v 0.617760 0.562420 -1.056883
v 0.617760 0.562420 1.056883
v 0.629862 0.439540 -1.056883
v 0.629862 0.439540 1.056883
v -0.629862 0.439540 -1.056883
v -0.617760 0.562420 -1.056883
v -0.617760 0.562420 1.056883
v -0.629862 0.439540 1.056883
v -0.581917 0.680578 -1.056883
v -0.581917 0.680578 1.056883
v -0.523711 0.789473 -1.056883
v -0.523711 0.789473 1.056883
v -0.445380 0.884920 -1.056883
v -0.445380 0.884920 1.056883
v -0.349933 0.963251 -1.056883
v -0.349933 0.963251 1.056883
v -0.241038 1.021457 -1.056883
v -0.241038 1.021457 1.056883
v -0.122880 1.057300 -1.056883
v -0.122880 1.057300 1.056883
v 0.000000 0.918468 -1.056883
v 0.093434 0.909266 -1.056883
v 0.093434 0.909266 1.056883
v 0.000000 0.918468 1.056883
v 0.183278 0.882012 -1.056883
v 0.183278 0.882012 1.056883
v 0.266078 0.837754 -1.056883
v 0.266078 0.837754 1.056883
v 0.338653 0.778193 -1.056883
v 0.338653 0.778193 1.056883
v 0.398214 0.705618 -1.056883
v 0.398214 0.705618 1.056883
v 0.442472 0.622818 -1.056883
v 0.442472 0.622818 1.056883
v 0.469726 0.532974 -1.056883
v 0.469726 0.532974 1.056883
v 0.478928 0.439540 -1.056883
v 0.478928 0.439540 1.056883
v -0.478928 0.439540 -1.056883
v -0.469726 0.532974 -1.056883
v -0.469726 0.532974 1.056883
v -0.478928 0.439540 1.056883
v -0.442472 0.622818 -1.056883
v -0.442472 0.622818 1.056883
v -0.398214 0.705618 -1.056883
v -0.398214 0.705618 1.056883
v -0.338653 0.778193 -1.056883
v -0.338653 0.778193 1.056883
v -0.266078 0.837754 -1.056883
v -0.266078 0.837754 1.056883
v -0.183278 0.882012 -1.056883
v -0.183278 0.882012 1.056883
v -0.093434 0.909266 -1.056883
v -0.093434 0.909266 1.056883
v 0.000000 0.803037 -1.056883
v 0.070915 0.796053 -1.056883
v 0.070915 0.796053 1.056883
v 0.000000 0.803037 1.056883
v 0.139104 0.775368 -1.056883
v 0.139104 0.775367 1.056883
v 0.201948 0.741777 -1.056883
v 0.201948 0.741777 1.056883
v 0.257031 0.696571 -1.056883
v 0.257031 0.696571 1.056883
v 0.302237 0.641488 -1.056883
v 0.302237 0.641488 1.056883
v 0.335827 0.578645 -1.056883
v 0.335827 0.578644 1.056883
v 0.356512 0.510455 -1.056883
v 0.356512 0.510455 1.056883
v 0.363497 0.439540 -1.056883
v 0.363497 0.439540 1.056883
v -0.363497 0.439540 -1.056883
v -0.356512 0.510455 -1.056883
v -0.356512 0.510455 1.056883
v -0.363497 0.439540 1.056883
v -0.335827 0.578645 -1.056883
v -0.335827 0.578644 1.056883
v -0.302237 0.641488 -1.056883
v -0.302237 0.641488 1.056883
v -0.257031 0.696571 -1.056883
v -0.257031 0.696571 1.056883
v -0.201948 0.741777 -1.056883
v -0.201948 0.741777 1.056883
v -0.139104 0.775368 -1.056883
v -0.139104 0.775367 1.056883
v -0.070915 0.796053 -1.056883
v -0.070915 0.796053 1.056883
v 0.000000 0.613186 -1.056883
v 0.033877 0.609850 -1.056883
v 0.033877 0.609850 1.056883
v 0.000000 0.613186 1.056883
v 0.066452 0.599968 -1.056883
v 0.066452 0.599968 1.056883
v 0.096473 0.583922 -1.056883
v 0.096473 0.583922 1.056883
v 0.122786 0.562326 -1.056883
v 0.122786 0.562326 1.056883
v 0.144381 0.536013 -1.056883
v 0.144381 0.536013 1.056883
v 0.160428 0.505992 -1.056883
v 0.160428 0.505992 1.056883
v 0.170310 0.473417 -1.056883
v 0.170310 0.473417 1.056883
v 0.173646 0.439540 -1.056883
v 0.173646 0.439540 1.056883
v -0.173646 0.439540 -1.056883
v -0.170310 0.473417 -1.056883
v -0.170309 0.473417 1.056882
v -0.173646 0.439540 1.056882
v -0.160428 0.505992 -1.056883
v -0.160428 0.505992 1.056882
v -0.144381 0.536013 -1.056883
v -0.144381 0.536013 1.056882
v -0.122786 0.562326 -1.056883
v -0.122786 0.562326 1.056882
v -0.096473 0.583922 -1.056883
v -0.096473 0.583922 1.056883
v -0.066452 0.599968 -1.056883
v -0.066452 0.599968 1.056883
v -0.033877 0.609850 -1.056883
v -0.033877 0.609850 1.056883
v 0.000000 0.439540 -1.056883
v 0.000000 0.439540 1.056883
v 0.725576 0.439540 -1.030925
v -0.513060 0.952600 -1.032370
v 0.513060 0.952600 -1.032116
v -0.725576 0.439540 -1.032371
v -0.403109 1.042835 -1.032370
v 0.000000 1.165117 -1.032359
v 0.603295 0.842649 -1.032035
v -0.711635 0.581093 -1.032371
v 0.141553 1.151175 -1.032344
v -0.277666 1.109885 -1.032367
v 0.670345 0.717206 -1.031975
v -0.670345 0.717206 -1.032371
v 0.277666 1.109885 -1.032329
v -0.141553 1.151175 -1.032363
v 0.711635 0.581093 -1.031640
v -0.603295 0.842649 -1.032370
v 0.403109 1.042835 -1.032216
v -0.725576 0.439540 1.019817
v 0.403109 1.042835 1.021763
v -0.403109 1.042835 1.020373
v 0.000000 1.165116 1.021068
v 0.603295 0.842649 1.022108
v -0.711635 0.581093 1.019841
v 0.141553 1.151175 1.021312
v -0.277666 1.109885 1.020589
v 0.670345 0.717206 1.022224
v -0.670345 0.717206 1.019912
v 0.277666 1.109885 1.021547
v 0.725576 0.439540 1.022319
v -0.141553 1.151175 1.020824
v -0.513060 0.952600 1.020183
v 0.711635 0.581093 1.022295
v 0.513060 0.952600 1.021952
v -0.603295 0.842649 1.020028
v 0.725576 0.439540 1.022319
v 0.725576 0.439540 -1.030925
v -0.513060 0.952600 1.020183
v -0.513060 0.952600 -1.032370
v 0.513060 0.952600 1.021952
v 0.513060 0.952600 -1.032116
v -0.725576 0.439540 1.019817
v -0.725576 0.439540 -1.032371
v -0.403109 1.042835 1.020373
v -0.403109 1.042835 -1.032370
v 0.603295 0.842649 1.022108
v 0.603295 0.842649 -1.032035
v -0.711635 0.581093 1.019841
v -0.711635 0.581093 -1.032371
v 0.141553 1.151175 1.021312
v 0.141553 1.151175 -1.032344
v -0.277666 1.109885 1.020589
v -0.277666 1.109885 -1.032367
v 0.670345 0.717206 1.022224
v 0.670345 0.717206 -1.031975
v -0.670345 0.717206 1.019912
v -0.670345 0.717206 -1.032371
v 0.277666 1.109885 1.021547
v 0.277666 1.109885 -1.032329
v -0.141553 1.151175 1.020824
v -0.141553 1.151175 -1.032363
v 0.711635 0.581093 1.022295
v 0.711635 0.581093 -1.031640
v -0.603295 0.842649 1.020028
v -0.603295 0.842649 -1.032370
v 0.403109 1.042835 1.021763
v 0.403109 1.042835 -1.032216
v 0.000000 1.165117 -1.032359
v 0.000000 1.165116 1.021068
v -0.478125 0.924125 1.020183
v -0.478125 0.924125 -1.032370
v 0.478125 0.924125 1.021952
v 0.478125 0.924125 -1.032116
v -0.375660 1.008215 1.020373
v -0.375660 1.008215 -1.032370
v 0.562215 0.821660 1.022108
v 0.562215 0.821660 -1.032035
v -0.663178 0.577915 1.019841
v -0.663178 0.577915 -1.032371
v 0.131914 1.109178 1.021312
v 0.131914 1.109178 -1.032344
v -0.258759 1.070700 1.020589
v -0.258759 1.070700 -1.032367
v 0.624700 0.704759 1.022224
v 0.624700 0.704760 -1.031975
v -0.624700 0.704759 1.019912
v -0.624700 0.704760 -1.032371
v 0.258759 1.070700 1.021547
v 0.258759 1.070700 -1.032329
v -0.131914 1.109178 1.020824
v -0.131914 1.109178 -1.032363
v 0.663178 0.577915 1.022295
v 0.663178 0.577915 -1.031640
v -0.562215 0.821660 1.020028
v -0.562215 0.821660 -1.032370
v 0.375660 1.008215 1.021763
v 0.375660 1.008215 -1.032216
v 0.000000 1.122171 -1.032359
v 0.000000 1.122170 1.021068
vn 0.0980 0.9952 -0.0000
vn 0.2903 0.9569 -0.0000
vn 0.4714 0.8819 -0.0000
vn 0.6344 0.7730 -0.0000
vn 0.7730 0.6344 -0.0000
vn 0.8819 0.4714 -0.0000
vn 0.9569 0.2903 -0.0000
vn 0.9952 0.0980 -0.0000
vn -0.0000 -1.0000 -0.0000
vn -0.9952 0.0980 -0.0000
vn -0.9569 0.2903 -0.0000
vn -0.8819 0.4714 -0.0000
vn -0.7730 0.6344 -0.0000
vn -0.6344 0.7730 -0.0000
vn -0.4714 0.8819 -0.0000
vn -0.2903 0.9569 -0.0000
vn -0.0980 0.9952 -0.0000
vn -0.0000 -0.0000 -1.0000
vn -0.0000 -0.0000 1.0000
vn -0.7730 -0.6344 -0.0000
vn -0.0000 1.0000 -0.0000
vn 0.8819 -0.4714 -0.0000
vn -0.6344 -0.7730 -0.0000
vn 0.9569 -0.2903 -0.0000
vn -0.4714 -0.8819 -0.0000
vn 0.0980 -0.9952 -0.0000
vn 0.9952 -0.0980 -0.0000
vn -0.2903 -0.9569 -0.0000
vn 0.2903 -0.9569 -0.0000
vn -0.9952 -0.0980 -0.0000
vn -0.0980 -0.9952 -0.0000
vn 0.4714 -0.8819 -0.0000
vn -0.9569 -0.2903 -0.0000
vn 0.6344 -0.7730 -0.0000
vn -0.8819 -0.4714 -0.0000
vn 0.7730 -0.6344 -0.0000
vn 0.0018 0.0002 -1.0000
vn -0.0004 0.0024 1.0000
vn 0.0016 0.0006 -1.0000
vn 0.0006 0.0010 -1.0000
vn 0.0013 0.0008 -1.0000
vn 0.0001 -0.0005 -1.0000
vn 0.0655 0.9979 -0.0000
vn 0.0003 -0.0008 -1.0000
vn -0.0002 0.0004 1.0000
vn 0.0006 -0.0010 -1.0000
vn -0.0003 0.0005 1.0000
vn -0.0005 0.0005 1.0000
vn 0.0018 -0.0002 -1.0000
vn 0.0016 -0.0006 -1.0000
vn -0.0655 0.9979 -0.0000
vn 0.0003 0.0008 -1.0000
vn -0.0001 -0.0000 1.0000
vn 0.0013 -0.0008 -1.0000
vn 0.0010 -0.0010 -1.0000
vn 0.0001 0.0005 -1.0000
vn -0.0007 0.0004 1.0000
vn 0.0010 0.0010 -1.0000
vt 1.000000 0.500000
vt 1.000000 0.520407
vt 0.968750 0.520410
vt 0.968750 0.500000
vt 0.937500 0.520413
vt 0.937500 0.500000
vt 0.906250 0.520438
vt 0.906250 0.500000
vt 0.875000 0.520461
vt 0.875000 0.500000
vt 0.843750 0.520479
vt 0.843750 0.500000
vt 0.812500 0.520492
vt 0.812500 0.500000
vt 0.781250 0.520567
vt 0.781250 0.500000
vt 0.750000 0.520726
vt 0.750000 0.500000
vt 0.990000 0.250000
vt 0.969274 0.250000
vt 0.512640 0.250000
vt 0.262062 0.965206
vt 0.499390 0.280606
vt 0.510000 0.250000
vt 0.541660 0.250000
vt 0.591584 0.250000
vt 0.629766 0.250000
vt 0.692563 0.250000
vt 0.780428 0.256052
vt 0.807437 0.250000
vt 0.870234 0.250000
vt 0.908416 0.250000
vt 0.958341 0.250000
vt 0.250000 0.500000
vt 0.250000 0.520404
vt 0.218750 0.520404
vt 0.218750 0.500000
vt 0.187500 0.520404
vt 0.187500 0.500000
vt 0.156250 0.520404
vt 0.156250 0.500000
vt 0.125000 0.520404
vt 0.125000 0.500000
vt 0.093750 0.520404
vt 0.093750 0.500000
vt 0.062500 0.520405
vt 0.062500 0.500000
vt 0.031250 0.520406
vt 0.031250 0.500000
vt 0.000000 0.520407
vt 0.000000 0.500000
vt 0.790645 0.454337
vt 0.750000 0.458341
vt 0.750000 0.490000
vt 0.796822 0.485388
vt 0.250000 0.458341
vt 0.290645 0.454337
vt 0.296822 0.485388
vt 0.250000 0.490000
vt 0.829729 0.442481
vt 0.841844 0.471731
vt 0.329728 0.442482
vt 0.341844 0.471731
vt 0.865748 0.423229
vt 0.883337 0.449553
vt 0.365748 0.423229
vt 0.383337 0.449553
vt 0.897319 0.397319
vt 0.919706 0.419706
vt 0.397319 0.397319
vt 0.419706 0.419706
vt 0.923229 0.365748
vt 0.949553 0.383337
vt 0.423229 0.365748
vt 0.449553 0.383337
vt 0.942482 0.329729
vt 0.971731 0.341844
vt 0.442481 0.329728
vt 0.471731 0.341844
vt 0.954337 0.290645
vt 0.985388 0.296822
vt 0.454337 0.290645
vt 0.485388 0.296822
vt 0.458340 0.250000
vt 0.490000 0.250000
vt 0.545663 0.290645
vt 0.514612 0.296822
vt 0.041660 0.250000
vt 0.045663 0.290645
vt 0.014612 0.296822
vt 0.010000 0.250000
vt 0.557519 0.329728
vt 0.528269 0.341844
vt 0.057519 0.329729
vt 0.028269 0.341844
vt 0.576771 0.365748
vt 0.550447 0.383337
vt 0.076771 0.365748
vt 0.050447 0.383337
vt 0.602681 0.397319
vt 0.580294 0.419706
vt 0.102681 0.397319
vt 0.080294 0.419706
vt 0.634252 0.423229
vt 0.616663 0.449553
vt 0.134252 0.423229
vt 0.116663 0.449553
vt 0.670272 0.442481
vt 0.658156 0.471731
vt 0.170272 0.442482
vt 0.158156 0.471731
vt 0.709355 0.454337
vt 0.703178 0.485388
vt 0.209355 0.454337
vt 0.203178 0.485388
vt 0.408416 0.250000
vt 0.129765 0.250000
vt 0.192563 0.250000
vt 0.219572 0.256052
vt 0.307437 0.250000
vt 0.370235 0.250000
vt 0.091584 0.250000
vt 0.780905 0.405372
vt 0.750000 0.408416
vt 0.250000 0.408416
vt 0.280905 0.405372
vt 0.810623 0.396357
vt 0.310623 0.396357
vt 0.838011 0.381718
vt 0.338011 0.381718
vt 0.862017 0.362017
vt 0.362017 0.362017
vt 0.881718 0.338011
vt 0.381718 0.338011
vt 0.896357 0.310623
vt 0.396357 0.310623
vt 0.905372 0.280905
vt 0.405372 0.280905
vt 0.594628 0.280905
vt 0.094628 0.280905
vt 0.603643 0.310623
vt 0.103643 0.310623
vt 0.618282 0.338011
vt 0.118282 0.338011
vt 0.637983 0.362017
vt 0.137983 0.362017
vt 0.661989 0.381718
vt 0.161989 0.381718
vt 0.689377 0.396357
vt 0.189377 0.396357
vt 0.719095 0.405372
vt 0.219095 0.405372
vt 0.773457 0.367924
vt 0.750000 0.370235
vt 0.250000 0.370234
vt 0.273457 0.367924
vt 0.796012 0.361082
vt 0.296012 0.361082
vt 0.816799 0.349971
vt 0.316799 0.349971
vt 0.835019 0.335019
vt 0.335019 0.335019
vt 0.849971 0.316799
vt 0.349971 0.316799
vt 0.861082 0.296012
vt 0.361082 0.296012
vt 0.867924 0.273456
vt 0.367924 0.273457
vt 0.632076 0.273457
vt 0.132076 0.273457
vt 0.638918 0.296012
vt 0.138918 0.296012
vt 0.650029 0.316799
vt 0.150029 0.316799
vt 0.664981 0.335019
vt 0.164981 0.335018
vt 0.683201 0.349971
vt 0.183201 0.349971
vt 0.703988 0.361082
vt 0.203988 0.361082
vt 0.726543 0.367924
vt 0.226543 0.367924
vt 0.761205 0.306333
vt 0.750000 0.307437
vt 0.250000 0.307437
vt 0.261205 0.306334
vt 0.771980 0.303065
vt 0.271980 0.303065
vt 0.781910 0.297757
vt 0.281910 0.297757
vt 0.790614 0.290614
vt 0.290614 0.290614
vt 0.797757 0.281910
vt 0.297757 0.281910
vt 0.803065 0.271980
vt 0.303065 0.271980
vt 0.806333 0.261205
vt 0.306334 0.261205
vt 0.693666 0.261205
vt 0.193666 0.261205
vt 0.696935 0.271980
vt 0.196935 0.271980
vt 0.702243 0.281910
vt 0.202243 0.281910
vt 0.709386 0.290614
vt 0.209386 0.290614
vt 0.718090 0.297757
vt 0.218090 0.297757
vt 0.728020 0.303065
vt 0.228020 0.303065
vt 0.738795 0.306334
vt 0.238795 0.306333
vt 0.750000 0.281024
vt 0.256053 0.280428
vt 0.756052 0.280428
vt 0.261873 0.278663
vt 0.761872 0.278663
vt 0.267236 0.275796
vt 0.767236 0.275796
vt 0.271937 0.271937
vt 0.771937 0.271937
vt 0.275796 0.267236
vt 0.775796 0.267236
vt 0.278663 0.261872
vt 0.778663 0.261872
vt 0.280428 0.256052
vt 0.281024 0.250000
vt 0.718976 0.250000
vt 0.719572 0.256052
vt 0.221337 0.261873
vt 0.721337 0.261873
vt 0.224204 0.267236
vt 0.724204 0.267236
vt 0.228063 0.271937
vt 0.728063 0.271937
vt 0.232764 0.275796
vt 0.732764 0.275796
vt 0.238127 0.278663
vt 0.738127 0.278663
vt 0.243948 0.280428
vt 0.743948 0.280428
vt 0.250000 0.281024
vt 0.031250 0.977028
vt 0.000000 0.977082
vt 0.187500 0.976825
vt 0.156250 0.976851
vt 0.968750 0.977137
vt 0.937500 0.977189
vt 1.000000 0.977082
vt 0.250000 0.976804
vt 0.218750 0.976809
vt 0.062500 0.976976
vt 0.781250 0.977355
vt 0.750000 0.977360
vt 0.093750 0.976928
vt 0.812500 0.977339
vt 0.812500 1.000000
vt 0.781250 1.000000
vt 0.125000 0.976886
vt 0.156250 1.000000
vt 0.125000 1.000000
vt 0.750000 1.000000
vt 0.031250 1.000000
vt 0.000000 1.000000
vt 0.250000 1.000000
vt 0.218750 1.000000
vt 1.000000 1.000000
vt 0.968750 1.000000
vt 0.937500 1.000000
vt 0.187500 1.000000
vt 0.906250 0.977237
vt 0.906250 1.000000
vt 0.875000 0.977279
vt 0.875000 1.000000
vt 0.093750 1.000000
vt 0.843750 0.977314
vt 0.843750 1.000000
vt 0.062500 1.000000
s 0
usemtl Material.002
f 59/49/15 261/50/15 289/51/15 278/52/15 264/53/15 61/54/15 95/55/15 113/56/15 117/57/15 121/58/15 41/59/15 119/60/15 115/61/15 111/62/15 93/63/15
f 112/146/27 94/114/27 140/114/27 174/146/27
f 117/57/27 113/56/27 175/56/27 209/57/27
f 118/147/27 122/148/27 246/148/27 212/147/27
f 42/149/27 120/150/27 242/150/27 260/149/27
f 93/63/27 111/62/27 173/62/27 139/63/27
f 116/151/27 112/146/27 174/146/27 208/151/27
f 121/58/27 117/57/27 209/57/27 243/58/27
f 119/60/27 41/59/27 259/59/27 241/60/27
f 111/62/27 115/61/27 207/61/27 173/62/27
f 120/150/27 116/151/27 208/151/27 242/150/27
f 41/59/27 121/58/27 243/58/27 259/59/27
f 115/61/27 119/60/27 241/60/27 207/61/27
f 96/118/27 114/152/27 178/152/27 144/118/27
f 113/56/27 95/55/27 141/55/27 175/56/27
f 114/152/27 118/147/27 212/147/27 178/152/27
f 122/148/27 42/149/27 260/149/27 246/148/27
f 158/153/24 157/154/24 123/83/24 124/82/24
f 160/155/25 159/156/25 125/87/25 126/86/25
f 161/157/24 158/153/24 124/82/24 127/90/24
f 159/156/25 162/158/25 128/92/25 125/87/25
f 163/159/24 161/157/24 127/90/24 129/94/24
f 162/158/25 164/160/25 130/96/25 128/92/25
f 165/161/24 163/159/24 129/94/24 131/98/24
f 164/160/25 166/162/25 132/100/25 130/96/25
f 167/163/24 165/161/24 131/98/24 133/102/24
f 166/162/25 168/164/25 134/104/25 132/100/25
f 169/165/24 167/163/24 133/102/24 135/106/24
f 168/164/25 170/166/25 136/108/25 134/104/25
f 171/167/24 169/165/24 135/106/24 137/110/24
f 170/166/25 172/168/25 138/112/25 136/108/25
f 173/62/24 171/167/24 137/110/24 139/63/24
f 172/168/25 174/146/25 140/114/25 138/112/25
f 176/169/24 175/56/24 141/55/24 142/116/24
f 178/152/25 177/170/25 143/119/25 144/118/25
f 179/171/24 176/169/24 142/116/24 145/122/24
f 177/170/25 180/172/25 146/124/25 143/119/25
f 181/173/24 179/171/24 145/122/24 147/126/24
f 180/172/25 182/174/25 148/128/25 146/124/25
f 183/175/24 181/173/24 147/126/24 149/130/24
f 182/174/25 184/176/25 150/132/25 148/128/25
f 185/177/24 183/175/24 149/130/24 151/134/24
f 184/176/25 186/178/25 152/136/25 150/132/25
f 187/179/24 185/177/24 151/134/24 153/138/24
f 186/178/25 188/180/25 154/140/25 152/136/25
f 189/181/24 187/179/24 153/138/24 155/142/24
f 188/180/25 190/182/25 156/144/25 154/140/25
f 157/154/24 189/181/24 155/142/24 123/83/24
f 190/182/25 160/155/25 126/86/25 156/144/25
f 192/183/24 191/184/24 157/154/24 158/153/24
f 194/185/25 193/186/25 159/156/25 160/155/25
f 195/187/24 192/183/24 158/153/24 161/157/24
f 193/186/25 196/188/25 162/158/25 159/156/25
f 197/189/24 195/187/24 161/157/24 163/159/24
f 196/188/25 198/190/25 164/160/25 162/158/25
f 199/191/24 197/189/24 163/159/24 165/161/24
f 198/190/25 200/192/25 166/162/25 164/160/25
f 201/193/24 199/191/24 165/161/24 167/163/24
f 200/192/25 202/194/25 168/164/25 166/162/25
f 203/195/24 201/193/24 167/163/24 169/165/24
f 202/194/25 204/196/25 170/166/25 168/164/25
f 205/197/24 203/195/24 169/165/24 171/167/24
f 204/196/25 206/198/25 172/168/25 170/166/25
f 207/61/24 205/197/24 171/167/24 173/62/24
f 206/198/25 208/151/25 174/146/25 172/168/25
f 210/199/24 209/57/24 175/56/24 176/169/24
f 212/147/25 211/200/25 177/170/25 178/152/25
f 213/201/24 210/199/24 176/169/24 179/171/24
f 211/200/25 214/202/25 180/172/25 177/170/25
f 215/203/24 213/201/24 179/171/24 181/173/24
f 214/202/25 216/204/25 182/174/25 180/172/25
f 217/205/24 215/203/24 181/173/24 183/175/24
f 216/204/25 218/206/25 184/176/25 182/174/25
f 219/207/24 217/205/24 183/175/24 185/177/24
f 218/206/25 220/208/25 186/178/25 184/176/25
f 221/209/24 219/207/24 185/177/24 187/179/24
f 220/208/25 222/210/25 188/180/25 186/178/25
f 223/211/24 221/209/24 187/179/24 189/181/24
f 222/210/25 224/212/25 190/182/25 188/180/25
f 191/184/24 223/211/24 189/181/24 157/154/24
f 224/212/25 194/185/25 160/155/25 190/182/25
f 226/213/24 225/214/24 191/184/24 192/183/24
f 228/215/25 227/216/25 193/186/25 194/185/25
f 229/217/24 226/213/24 192/183/24 195/187/24
f 227/216/25 230/218/25 196/188/25 193/186/25
f 231/219/24 229/217/24 195/187/24 197/189/24
f 230/218/25 232/220/25 198/190/25 196/188/25
f 233/221/24 231/219/24 197/189/24 199/191/24
f 232/220/25 234/222/25 200/192/25 198/190/25
f 235/223/24 233/221/24 199/191/24 201/193/24
f 234/222/25 236/224/25 202/194/25 200/192/25
f 237/225/24 235/223/24 201/193/24 203/195/24
f 236/224/25 238/226/25 204/196/25 202/194/25
f 239/227/24 237/225/24 203/195/24 205/197/24
f 238/226/25 240/228/25 206/198/25 204/196/25
f 241/60/24 239/227/24 205/197/24 207/61/24
f 240/228/25 242/150/25 208/151/25 206/198/25
f 244/229/24 243/58/24 209/57/24 210/199/24
f 246/148/25 245/230/25 211/200/25 212/147/25
f 247/231/24 244/229/24 210/199/24 213/201/24
f 245/230/25 248/232/25 214/202/25 211/200/25
f 249/233/24 247/231/24 213/201/24 215/203/24
f 248/232/25 250/234/25 216/204/25 214/202/25
f 251/235/24 249/233/24 215/203/24 217/205/24
f 250/234/25 252/236/25 218/206/25 216/204/25
f 253/237/24 251/235/24 217/205/24 219/207/24
f 252/236/25 254/238/25 220/208/25 218/206/25
f 255/239/24 253/237/24 219/207/24 221/209/24
f 254/238/25 256/240/25 222/210/25 220/208/25
f 257/241/24 255/239/24 221/209/24 223/211/24
f 256/240/25 258/242/25 224/212/25 222/210/25
f 225/214/24 257/241/24 223/211/24 191/184/24
f 258/242/25 228/215/25 194/185/25 224/212/25
f 259/243/24 225/214/24 226/213/24
f 260/244/25 227/216/25 228/215/25
f 259/245/24 226/213/24 229/217/24
f 260/246/25 230/218/25 227/216/25
f 259/247/24 229/217/24 231/219/24
f 260/248/25 232/220/25 230/218/25
f 259/249/24 231/219/24 233/221/24
f 260/250/25 234/222/25 232/220/25
f 259/251/24 233/221/24 235/223/24
f 260/252/25 236/224/25 234/222/25
f 259/253/24 235/223/24 237/225/24
f 260/254/25 238/226/25 236/224/25
f 259/255/24 237/225/24 239/227/24
f 260/256/25 240/228/25 238/226/25
f 259/59/24 239/227/24 241/60/24
f 260/257/25 242/150/25 240/228/25
f 259/258/24 243/58/24 244/229/24
f 260/149/25 245/230/25 246/148/25
f 259/259/24 244/229/24 247/231/24
f 260/260/25 248/232/25 245/230/25
f 259/261/24 247/231/24 249/233/24
f 260/262/25 250/234/25 248/232/25
f 259/263/24 249/233/24 251/235/24
f 260/264/25 252/236/25 250/234/25
f 259/265/24 251/235/24 253/237/24
f 260/266/25 254/238/25 252/236/25
f 259/267/24 253/237/24 255/239/24
f 260/268/25 256/240/25 254/238/25
f 259/269/24 255/239/24 257/241/24
f 260/270/25 258/242/25 256/240/25
f 259/271/24 257/241/24 225/214/24
f 260/272/25 228/215/25 258/242/25
f 287/275/25 294/276/25 323/276/25 315/275/25
f 276/70/25 272/68/25 316/68/25 324/70/25
f 264/53/25 278/52/25 301/52/25 302/53/25
f 284/277/25 288/278/25 317/278/25 309/277/25
f 273/35/25 269/33/25 310/33/25 318/35/25
f 281/279/25 284/277/25 309/277/25 328/279/25
f 269/33/25 266/32/25 327/32/25 310/33/25
f 278/280/25 283/281/25 307/281/25 301/280/25
f 268/66/25 264/65/25 302/65/25 308/66/25
f 289/51/25 261/50/25 296/50/25 295/51/25
f 290/273/25 281/274/25 328/274/25 319/273/25
f 266/80/25 274/78/25 320/78/25 327/80/25
f 285/282/25 290/273/25 319/273/25 311/282/25
f 280/285/25 285/282/25 311/282/25 303/285/25
f 278/52/15 289/51/15 60/115/15 94/114/15 112/146/15 116/151/15 120/150/15 42/149/15 122/148/15 118/147/15 114/152/15 96/118/15 62/295/15
f 272/68/25 268/66/25 308/66/25 316/68/25
f 277/37/25 273/35/25 318/35/25 326/37/25
f 288/278/25 279/301/25 325/301/25 317/278/25
f 265/74/25 262/72/25 298/72/25 304/74/25
f 263/39/25 277/37/25 326/37/25 300/39/25
f 279/301/25 293/303/25 299/303/25 325/301/25
f 267/41/25 263/39/25 300/39/25 306/41/25
f 283/281/25 287/275/25 315/275/25 307/281/25
f 271/43/25 267/41/25 306/41/25 314/43/25
f 291/289/25 280/285/25 303/285/25 297/289/25
f 270/76/25 265/74/25 304/74/25 312/76/25
f 274/78/25 270/76/25 312/76/25 320/78/25
f 293/303/25 282/306/25 305/306/25 299/303/25
f 275/45/25 271/43/25 314/43/25 322/45/25
f 286/286/25 292/283/25 321/283/25 313/286/25
f 282/306/25 286/286/25 313/286/25 305/306/25
f 262/72/25 276/70/25 324/70/25 298/72/25
f 294/276/25 291/289/25 297/289/25 323/276/25
f 346/68/17 338/66/17 337/281/17 345/275/17
f 334/74/20 330/72/20 329/289/20 333/285/20
f 336/41/11 332/39/11 331/303/11 335/306/11
f 344/43/12 336/41/12 335/306/12 343/286/12
f 342/76/21 334/74/21 333/285/21 341/282/21
f 350/78/22 342/76/22 341/282/22 349/273/22
f 352/45/13 344/43/13 343/286/13 351/283/13
f 330/72/19 354/70/19 353/276/19 329/289/19
f 357/80/23 350/78/23 349/273/23 358/274/23
f 340/33/7 357/32/7 358/279/7 339/277/7
f 348/35/8 340/33/8 339/277/8 347/278/8
f 354/70/18 346/68/18 345/275/18 353/276/18
f 356/37/9 348/35/9 347/278/9 355/301/9
f 332/39/10 356/37/10 355/301/10 331/303/10
usemtl Material.003
f 43/31/7 266/32/7 269/33/7 44/34/7
f 44/34/8 269/33/8 273/35/8 47/36/8
f 47/36/9 273/35/9 277/37/9 49/38/9
f 49/38/10 277/37/10 263/39/10 51/40/10
f 51/40/11 263/39/11 267/41/11 53/42/11
f 53/42/12 267/41/12 271/43/12 55/44/12
f 55/44/13 271/43/13 275/45/13 57/46/13
f 57/46/14 275/45/14 261/47/14 59/48/14
f 61/64/16 264/65/16 268/66/16 63/67/16
f 63/67/17 268/66/17 272/68/17 65/69/17
f 65/69/18 272/68/18 276/70/18 67/71/18
f 67/71/19 276/70/19 262/72/19 69/73/19
f 69/73/20 262/72/20 265/74/20 71/75/20
f 71/75/21 265/74/21 270/76/21 73/77/21
f 73/77/22 270/76/22 274/78/22 75/79/22
f 75/79/23 274/78/23 266/80/23 43/81/23
f 78/82/24 77/83/24 43/84/24 44/85/24
f 80/86/25 79/87/25 45/88/25 46/89/25
f 81/90/24 78/82/24 44/85/24 47/91/24
f 79/87/25 82/92/25 48/93/25 45/88/25
f 83/94/24 81/90/24 47/91/24 49/95/24
f 82/92/25 84/96/25 50/97/25 48/93/25
f 85/98/24 83/94/24 49/95/24 51/99/24
f 84/96/25 86/100/25 52/101/25 50/97/25
f 87/102/24 85/98/24 51/99/24 53/103/24
f 86/100/25 88/104/25 54/105/25 52/101/25
f 89/106/24 87/102/24 53/103/24 55/107/24
f 88/104/25 90/108/25 56/109/25 54/105/25
f 91/110/24 89/106/24 55/107/24 57/111/24
f 90/108/25 92/112/25 58/113/25 56/109/25
f 93/63/24 91/110/24 57/111/24 59/49/24
f 92/112/25 94/114/25 60/115/25 58/113/25
f 97/116/24 95/55/24 61/54/24 63/117/24
f 96/118/25 98/119/25 64/120/25 62/121/25
f 99/122/24 97/116/24 63/117/24 65/123/24
f 98/119/25 100/124/25 66/125/25 64/120/25
f 101/126/24 99/122/24 65/123/24 67/127/24
f 100/124/25 102/128/25 68/129/25 66/125/25
f 103/130/24 101/126/24 67/127/24 69/131/24
f 102/128/25 104/132/25 70/133/25 68/129/25
f 105/134/24 103/130/24 69/131/24 71/135/24
f 104/132/25 106/136/25 72/137/25 70/133/25
f 107/138/24 105/134/24 71/135/24 73/139/24
f 106/136/25 108/140/25 74/141/25 72/137/25
f 109/142/24 107/138/24 73/139/24 75/143/24
f 108/140/25 110/144/25 76/145/25 74/141/25
f 77/83/24 109/142/24 75/143/24 43/84/24
f 110/144/25 80/86/25 46/89/25 76/145/25
f 85/98/26 87/102/26 133/102/26 131/98/26
f 102/128/28 100/124/28 146/124/28 148/128/28
f 86/100/29 84/96/29 130/96/29 132/100/29
f 99/122/28 101/126/28 147/126/28 145/122/28
f 83/94/29 85/98/29 131/98/29 129/94/29
f 100/124/30 98/119/30 143/119/30 146/124/30
f 84/96/31 82/92/31 128/92/31 130/96/31
f 97/116/30 99/122/30 145/122/30 142/116/30
f 80/86/32 110/144/32 156/144/32 126/86/32
f 81/90/31 83/94/31 129/94/31 127/90/31
f 98/119/33 96/118/33 144/118/33 143/119/33
f 109/142/32 77/83/32 123/83/32 155/142/32
f 82/92/34 79/87/34 125/87/34 128/92/34
f 95/55/33 97/116/33 142/116/33 141/55/33
f 110/144/35 108/140/35 154/140/35 156/144/35
f 78/82/34 81/90/34 127/90/34 124/82/34
f 94/114/36 92/112/36 138/112/36 140/114/36
f 107/138/35 109/142/35 155/142/35 153/138/35
f 79/87/37 80/86/37 126/86/37 125/87/37
f 91/110/36 93/63/36 139/63/36 137/110/36
f 108/140/38 106/136/38 152/136/38 154/140/38
f 77/83/37 78/82/37 124/82/37 123/83/37
f 92/112/39 90/108/39 136/108/39 138/112/39
f 105/134/38 107/138/38 153/138/38 151/134/38
f 89/106/39 91/110/39 137/110/39 135/106/39
f 106/136/40 104/132/40 150/132/40 152/136/40
f 90/108/41 88/104/41 134/104/41 136/108/41
f 103/130/40 105/134/40 151/134/40 149/130/40
f 87/102/41 89/106/41 135/106/41 133/102/41
f 104/132/42 102/128/42 148/128/42 150/132/42
f 88/104/26 86/100/26 132/100/26 134/104/26
f 101/126/42 103/130/42 149/130/42 147/126/42
f 319/273/43 328/274/43 358/274/43 349/273/43
f 292/283/25 289/284/25 295/284/25 321/283/25
f 261/47/25 275/45/25 322/45/25 296/47/25
f 292/283/13 286/286/13 56/287/13 58/288/13
f 291/289/19 294/276/19 68/290/19 70/291/19
f 289/284/14 292/283/14 58/288/14 60/292/14
f 281/274/23 290/273/23 76/293/23 46/294/23
f 283/281/16 278/280/16 62/295/16 64/296/16
f 284/277/7 281/279/7 46/297/7 45/298/7
f 288/278/8 284/277/8 45/298/8 48/299/8
f 294/276/18 287/275/18 66/300/18 68/290/18
f 279/301/9 288/278/9 48/299/9 50/302/9
f 293/303/10 279/301/10 50/302/10 52/304/10
f 287/275/17 283/281/17 64/296/17 66/300/17
f 280/285/20 291/289/20 70/291/20 72/305/20
f 282/306/11 293/303/11 52/304/11 54/307/11
f 286/286/12 282/306/12 54/307/12 56/287/12
f 285/282/21 280/285/21 72/305/21 74/308/21
f 290/273/22 285/282/22 74/308/22 76/293/22
f 322/45/44 314/43/44 344/43/44 352/45/44
f 311/282/45 319/273/45 349/273/45 341/282/45
f 320/78/25 312/76/25 342/76/25 350/78/25
f 323/276/46 297/289/46 329/289/46 353/276/46
f 303/285/47 311/282/47 341/282/47 333/285/47
f 312/76/25 304/74/25 334/74/25 342/76/25
f 313/286/48 321/283/48 351/283/48 343/286/48
f 296/47/14 322/45/14 321/283/14 295/284/14
f 308/66/49 307/281/49 337/281/49 338/66/49
f 308/66/16 302/65/16 301/280/16 307/281/16
f 305/306/50 313/286/50 343/286/50 335/306/50
f 314/43/51 306/41/51 336/41/51 344/43/51
f 299/303/52 305/306/52 335/306/52 331/303/52
f 306/41/53 300/39/53 332/39/53 336/41/53
f 300/39/54 326/37/54 356/37/54 332/39/54
f 298/72/25 324/70/25 354/70/25 330/72/25
f 328/279/55 309/277/55 339/277/55 358/279/55
f 327/80/25 320/78/25 350/78/25 357/80/25
f 309/277/56 317/278/56 347/278/56 339/277/56
f 321/283/57 322/45/57 352/45/57 351/283/57
f 315/275/58 323/276/58 353/276/58 345/275/58
f 310/33/59 327/32/59 357/32/59 340/33/59
f 317/278/60 325/301/60 355/301/60 347/278/60
f 318/35/59 310/33/59 340/33/59 348/35/59
f 325/301/61 299/303/61 331/303/61 355/301/61
f 324/70/25 316/68/25 346/68/25 354/70/25
f 316/68/25 308/66/25 338/66/25 346/68/25
f 307/281/62 315/275/62 345/275/62 337/281/62
f 326/37/63 318/35/63 348/35/63 356/37/63
f 304/74/25 298/72/25 330/72/25 334/74/25
f 297/289/64 303/285/64 333/285/64 329/289/64
o Cube
v 0.688495 0.537309 0.074172
v 0.673453 0.499684 0.111797
v 0.688495 0.537309 -0.055377
v 0.673453 0.499684 -0.093002
v 0.740289 0.537309 0.074172
v 0.755331 0.499684 0.111797
v 0.740289 0.537309 -0.055377
v 0.755331 0.499684 -0.093002
v 0.678544 0.332510 0.099062
v 0.673453 0.345245 0.111797
v 0.673453 0.345245 -0.093002
v 0.678544 0.332510 -0.080267
v 0.755331 0.345245 0.111797
v 0.750240 0.332510 0.099062
v 0.755331 0.345245 -0.093002
v 0.750240 0.332510 -0.080267
v 0.755331 0.450776 0.033501
v 0.755331 0.445210 0.032952
v 0.755331 0.456342 0.032952
v 0.755331 0.439859 0.031329
v 0.755331 0.461694 0.031329
v 0.755331 0.466626 0.028693
v 0.755331 0.470949 0.025145
v 0.755331 0.474497 0.020821
v 0.755331 0.478757 0.010537
v 0.755331 0.478757 -0.000594
v 0.755331 0.479305 0.004972
v 0.755331 0.477133 0.015889
v 0.755331 0.474497 -0.010878
v 0.755331 0.434926 -0.018749
v 0.755331 0.430603 -0.015201
v 0.755331 0.429329 -0.013649
v 0.755331 0.470949 -0.015201
v 0.755331 0.445210 -0.023009
v 0.755331 0.439859 -0.021386
v 0.755331 0.461694 -0.021386
v 0.755331 0.450776 -0.023557
v 0.755331 0.456342 -0.023009
v 0.755331 0.466626 -0.018749
v 0.755331 0.477133 -0.005946
v 0.755331 0.380855 0.049753
v 0.755331 0.434926 0.028693
v 0.755331 0.430603 0.025145
v 0.755331 0.428039 0.022020
v 0.755331 0.380855 -0.042139
v 0.673453 0.450776 0.033501
v 0.673453 0.439859 0.031329
v 0.673453 0.445210 0.032952
v 0.673453 0.456342 0.032952
v 0.673453 0.461694 0.031329
v 0.673453 0.434926 0.028693
v 0.673453 0.466626 0.028693
v 0.673453 0.428051 0.022035
v 0.673453 0.430603 0.025145
v 0.673453 0.470949 0.025145
v 0.673453 0.474497 0.020821
v 0.673453 0.477133 0.015889
v 0.673453 0.478757 0.010537
v 0.673453 0.478757 -0.000594
v 0.673453 0.477133 -0.005946
v 0.673453 0.479305 0.004972
v 0.673453 0.470949 -0.015201
v 0.673453 0.466626 -0.018749
v 0.673453 0.456342 -0.023009
v 0.673453 0.450776 -0.023557
v 0.673453 0.461694 -0.021386
v 0.673453 0.474497 -0.010878
v 0.673453 0.380893 0.049753
v 0.673453 0.430603 -0.015201
v 0.673453 0.429341 -0.013663
v 0.673453 0.439859 -0.021386
v 0.673453 0.380893 -0.042139
v 0.673453 0.445210 -0.023009
v 0.673453 0.434926 -0.018749
vn -0.0000 1.0000 -0.0000
vn -0.0000 -0.0000 -1.0000
vn -0.0000 -0.0000 1.0000
vn 1.0000 -0.0000 -0.0000
vn -0.9285 0.3712 -0.0000
vn -0.0000 0.7071 -0.7071
vn 0.9285 0.3712 -0.0000
vn -0.0000 0.7071 0.7071
vn -1.0000 -0.0000 -0.0000
vn -0.9285 -0.3712 -0.0000
vn -0.0000 -0.7071 -0.7071
vn 0.9285 -0.3712 -0.0000
vn -0.0000 -0.7071 0.7071
vn -0.0000 -1.0000 -0.0000
vn 0.0005 1.0000 -0.0000
vn -0.0002 -0.5067 -0.8621
vn -0.0002 -0.5067 0.8621
vn -0.0000 0.0980 0.9952
vn -0.0000 0.2903 0.9569
vn -0.0000 0.4714 0.8819
vn -0.0000 0.6344 0.7730
vn -0.0000 0.7730 0.6344
vn -0.0000 0.7730 -0.6344
vn -0.0000 0.6344 -0.7730
vn -0.0000 0.4714 -0.8819
vn -0.0000 0.2903 -0.9569
vn -0.0000 0.0980 -0.9952
vn -0.0000 -0.0980 -0.9952
vn -0.0000 -0.2903 -0.9569
vn -0.0000 -0.4714 -0.8819
vn -0.0000 -0.6344 -0.7730
vn -0.0000 -0.7730 -0.6344
vn -0.0000 -0.8819 -0.4714
vn -0.0000 -0.9569 -0.2903
vn -0.0000 -0.9952 -0.0980
vn -0.0000 -0.9952 0.0980
vn -0.0000 -0.9569 0.2903
vn -0.0000 -0.8819 0.4714
vn -0.0000 -0.7730 0.6344
vn -0.0000 -0.6344 0.7730
vn -0.0000 -0.4714 0.8819
vn -0.0000 -0.2903 0.9569
vn -0.0000 -0.0980 0.9952
vt 0.670929 0.545929
vt 0.829071 0.545929
vt 0.829071 0.704071
vt 0.670929 0.704071
vt 0.390546 0.250000
vt 0.579071 0.250000
vt 0.579071 0.500000
vt 0.390545 0.500000
vt 0.390546 0.750000
vt 0.579071 0.750000
vt 0.579071 1.000000
vt 0.390545 1.000000
vt 0.434015 0.562088
vt 0.434015 0.674262
vt 0.491613 0.640409
vt 0.494743 0.644223
vt 0.500020 0.648554
vt 0.506041 0.651772
vt 0.512574 0.653754
vt 0.519369 0.654423
vt 0.526163 0.653754
vt 0.532696 0.651772
vt 0.538717 0.648554
vt 0.543994 0.644223
vt 0.548325 0.638945
vt 0.551543 0.632924
vt 0.553525 0.626391
vt 0.554194 0.619597
vt 0.553525 0.612803
vt 0.551543 0.606270
vt 0.548325 0.600249
vt 0.543994 0.594972
vt 0.538717 0.590641
vt 0.532696 0.587422
vt 0.526163 0.585441
vt 0.519368 0.584772
vt 0.512574 0.585441
vt 0.506041 0.587422
vt 0.500020 0.590641
vt 0.494743 0.594972
vt 0.493187 0.596867
vt 0.875000 0.500000
vt 0.875000 0.750000
vt 0.625000 0.500000
vt 0.625000 0.750000
vt 0.494743 0.105777
vt 0.491628 0.109573
vt 0.434061 0.075738
vt 0.390546 0.000000
vt 0.579071 0.000000
vt 0.434061 0.187912
vt 0.493202 0.153151
vt 0.494743 0.155028
vt 0.500020 0.159359
vt 0.506041 0.162578
vt 0.512574 0.164559
vt 0.519368 0.165229
vt 0.526163 0.164559
vt 0.532696 0.162578
vt 0.538717 0.159359
vt 0.543994 0.155028
vt 0.548325 0.149751
vt 0.551543 0.143730
vt 0.553525 0.137197
vt 0.554194 0.130403
vt 0.553525 0.123609
vt 0.551543 0.117076
vt 0.548325 0.111055
vt 0.543994 0.105777
vt 0.538717 0.101446
vt 0.532696 0.098228
vt 0.526163 0.096246
vt 0.519368 0.095577
vt 0.512574 0.096246
vt 0.506041 0.098228
vt 0.500020 0.101446
vt 0.140546 0.515545
vt 0.140545 0.734455
vt 0.125000 0.750000
vt 0.125000 0.500000
vt 0.359455 0.515545
vt 0.375000 0.500000
vt 0.359455 0.734455
vt 0.375000 0.750000
vt 0.272728 0.157461
vt 0.454546 0.157461
vt 0.454546 0.157461
vt 0.327570 0.252451
vt 0.327600 0.252502
vt 0.398174 0.255100
vt 0.398204 0.255049
vt 0.968750 0.585157
vt 0.968750 0.797119
vt 1.000000 0.797119
vt 1.000000 0.585157
vt 0.937500 0.797119
vt 0.937500 0.585157
vt 0.906250 0.797119
vt 0.906250 0.585157
vt 0.875000 0.797119
vt 0.875000 0.585157
vt 0.863883 0.585157
vt 0.863775 0.797119
vt 0.625000 0.797119
vt 0.647585 0.797119
vt 0.647478 0.585157
vt 0.625000 0.585157
vt 0.593750 0.585157
vt 0.593750 0.797119
vt 0.562500 0.585157
vt 0.562500 0.797119
vt 0.531250 0.585157
vt 0.531250 0.797119
vt 0.500000 0.585157
vt 0.500000 0.797119
vt 0.468750 0.585157
vt 0.468750 0.797119
vt 0.437500 0.585157
vt 0.437500 0.797119
vt 0.406250 0.585157
vt 0.406250 0.797119
vt 0.375000 0.585157
vt 0.375000 0.797119
vt 0.343750 0.585157
vt 0.343750 0.797119
vt 0.312500 0.585157
vt 0.312500 0.797119
vt 0.281250 0.585157
vt 0.281250 0.797119
vt 0.250000 0.585157
vt 0.250000 0.797119
vt 0.218750 0.585157
vt 0.218750 0.797119
vt 0.187500 0.585157
vt 0.187500 0.797119
vt 0.156250 0.585157
vt 0.156250 0.797119
vt 0.125000 0.585157
vt 0.125000 0.797119
vt 0.093750 0.797119
vt 0.093750 0.585157
vt 0.062500 0.797119
vt 0.062500 0.585157
vt 0.031250 0.797119
vt 0.031250 0.585157
vt 0.000000 0.797119
vt 0.000000 0.585157
s 0
usemtl Material.001
f 365/309/65 361/310/65 359/311/65 363/312/65
f 369/313/66 362/314/66 366/315/66 373/316/66
f 371/317/67 364/318/67 360/319/67 368/320/67
f 403/321/68 373/316/68 366/315/68 364/318/68 371/317/68 399/322/68 402/323/68 401/324/68 400/325/68 378/326/68 376/327/68 375/328/68 377/329/68 379/330/68 380/331/68 381/332/68 382/333/68 386/334/68 383/335/68 385/336/68 384/337/68 398/338/68 387/339/68 391/340/68 397/341/68 394/342/68 396/343/68 395/344/68 392/345/68 393/346/68 388/347/68 389/348/68 390/349/68
f 399/322/68 371/317/68 373/316/68 403/321/68
f 359/311/69 361/310/69 362/350/69 360/351/69
f 361/310/70 365/309/70 366/352/70 362/350/70
f 365/309/71 363/312/71 364/318/71 366/315/71
f 363/312/72 359/311/72 360/351/72 364/353/72
f 412/354/73 411/355/73 426/356/73 368/357/73 360/358/73 362/314/73 369/313/73 430/359/73 428/360/73 427/361/73 432/362/73 429/363/73 431/364/73 423/365/73 422/366/73 424/367/73 421/368/73 420/369/73 425/370/73 418/371/73 417/372/73 419/373/73 416/374/73 415/375/73 414/376/73 413/377/73 410/378/73 408/379/73 407/380/73 404/381/73 406/382/73 405/383/73 409/384/73
f 369/313/73 368/357/73 426/356/73 430/359/73
f 370/385/74 367/386/74 368/387/74 369/388/74
f 374/389/75 370/385/75 369/388/75 373/390/75
f 372/391/76 374/389/76 373/316/76 371/317/76
f 367/386/77 372/391/77 371/392/77 368/387/77
f 370/385/78 374/389/78 372/391/78 367/386/78
f 426/393/79 399/393/79 403/394/79 430/395/79
f 411/396/80 402/397/80 399/393/80 426/393/80
f 430/395/81 403/394/81 390/398/81 428/399/81
f 431/400/82 392/401/82 395/402/82 423/403/82
f 393/404/83 392/401/83 431/400/83 429/405/83
f 388/406/84 393/404/84 429/405/84 432/407/84
f 389/408/85 388/406/85 432/407/85 427/409/85
f 428/410/86 390/411/86 389/408/86 427/409/86
f 401/412/87 402/413/87 411/414/87 412/415/87
f 409/416/88 400/417/88 401/412/88 412/415/88
f 400/417/89 409/416/89 405/418/89 378/419/89
f 406/420/90 376/421/90 378/419/90 405/418/90
f 404/422/91 375/423/91 376/421/91 406/420/91
f 407/424/92 377/425/92 375/423/92 404/422/92
f 408/426/93 379/427/93 377/425/93 407/424/93
f 410/428/94 380/429/94 379/427/94 408/426/94
f 413/430/95 381/431/95 380/429/95 410/428/95
f 414/432/96 382/433/96 381/431/96 413/430/96
f 415/434/97 386/435/97 382/433/97 414/432/97
f 416/436/98 383/437/98 386/435/98 415/434/98
f 419/438/99 385/439/99 383/437/99 416/436/99
f 417/440/100 384/441/100 385/439/100 419/438/100
f 418/442/101 398/443/101 384/441/101 417/440/101
f 425/444/102 387/445/102 398/443/102 418/442/102
f 420/446/103 391/447/103 387/445/103 425/444/103
f 397/448/104 391/447/104 420/446/104 421/449/104
f 394/450/105 397/448/105 421/449/105 424/451/105
f 396/452/106 394/450/106 424/451/106 422/453/106
f 395/454/107 396/452/107 422/453/107 423/455/107
