# Blender 4.4.1
# www.blender.org
mtllib sign.mtl
o Stick
v -0.019403 -0.305365 0.019403
v -0.019403 0.305365 0.019403
v -0.019403 -0.305365 -0.019403
v -0.019403 0.305365 -0.019403
v 0.019403 -0.305365 0.019403
v 0.019403 0.305365 0.019403
v 0.019403 -0.305365 -0.019403
v 0.019403 0.305365 -0.019403
vn -1.0000 -0.0000 -0.0000
vn -0.0000 -0.0000 -1.0000
vn 1.0000 -0.0000 -0.0000
vn -0.0000 -0.0000 1.0000
vn -0.0000 -1.0000 -0.0000
vn -0.0000 1.0000 -0.0000
vt 0.325293 -0.198829
vt 0.674707 -0.198829
vt 0.674707 0.150585
vt 0.325293 0.150585
vt 0.674707 0.500000
vt 0.325293 0.500000
vt 0.674707 0.849415
vt 0.325293 0.849415
vt 0.674707 1.198829
vt 0.325293 1.198829
vt -0.024122 0.500000
vt -0.024122 0.849415
vt 1.024122 0.500000
vt 1.024122 0.849415
s 0
usemtl White_Birch_Wood_Veneer
f 1/1/1 2/2/1 4/3/1 3/4/1
f 3/4/2 4/3/2 8/5/2 7/6/2
f 7/6/3 8/5/3 6/7/3 5/8/3
f 5/8/4 6/7/4 2/9/4 1/10/4
f 3/11/5 7/6/5 5/8/5 1/12/5
f 8/5/6 4/13/6 2/14/6 6/7/6
o Cube
v -0.239513 0.165183 0.041764
v -0.186487 0.310872 0.041764
v -0.239513 0.165183 0.006573
v -0.186487 0.310872 0.006573
v 0.123712 0.032980 0.041764
v 0.176738 0.178669 0.041764
v 0.123712 0.032980 0.006573
v 0.176738 0.178669 0.006573
v 0.247238 0.070515 0.006573
v 0.247238 0.070515 0.041764
vn -0.9397 0.3420 -0.0000
vn -0.0000 -0.0000 -1.0000
vn -0.0000 -0.0000 1.0000
vn -0.3420 -0.9397 -0.0000
vn 0.3420 0.9397 -0.0000
vn 0.2907 -0.9568 -0.0000
vn 0.8377 0.5461 -0.0000
vt 0.179575 0.179575
vt 0.179575 0.820426
vt 0.820426 0.820426
vt 0.820426 0.179575
vt 0.774934 -0.379989
vt 0.233772 -0.379989
vt 0.233772 0.969212
vt 0.774934 0.969212
vt 0.504353 1.329568
vt -0.097021 0.047892
vt -0.090613 0.958515
vt 0.820010 0.952108
vt 0.813602 0.041485
vt -0.349100 1.221379
vt -0.359885 -0.210595
vt 1.072089 -0.221379
vt 1.082874 1.210595
vt 0.026702 0.103138
vt 0.973298 0.103138
vt 0.973298 0.576436
vt 0.026702 0.576436
vt -0.166047 0.327189
vt 1.166047 0.327189
vt 1.166047 0.993236
vt -0.166047 0.993236
s 0
usemtl Oak
f 9/15/7 10/16/7 12/17/7 11/18/7
f 11/19/8 12/20/8 16/21/8 15/22/8
f 14/21/9 13/22/9 18/23/9
f 13/22/9 14/21/9 10/20/9 9/19/9
f 11/24/10 15/25/10 13/26/10 9/27/10
f 16/28/11 12/29/11 10/30/11 14/31/11
f 13/32/12 15/33/12 17/34/12 18/35/12
f 16/36/13 14/37/13 18/38/13 17/39/13
f 15/22/8 16/21/8 17/23/8
o text
v 0.097366 0.051963 0.048721
v 0.087281 0.076470 0.048721
v 0.109836 0.088138 0.048721
v 0.117927 0.063659 0.048721
v 0.093600 0.072514 0.048721
v 0.101442 0.057890 0.048721
v 0.115041 0.057648 0.048721
v 0.112632 0.051027 0.048721
v 0.107832 0.082155 0.048721
v 0.095407 0.077000 0.048721
v 0.112806 0.070667 0.048721
v 0.069052 0.093218 0.048721
v 0.069206 0.093162 0.048721
v 0.082353 0.098142 0.048721
v 0.089133 0.091140 0.048721
v 0.083357 0.086529 0.048721
v 0.078200 0.092242 0.048721
v 0.065942 0.084673 0.048721
v 0.059357 0.066581 0.048721
v 0.052506 0.069075 0.048721
v 0.065087 0.103641 0.048721
v 0.071938 0.101147 0.048721
v 0.037089 0.079656 0.048721
v 0.025001 0.078301 0.048721
v 0.018084 0.096425 0.048721
v 0.025902 0.117903 0.048721
v 0.032753 0.115410 0.048721
v 0.024768 0.093469 0.048721
v 0.029076 0.083270 0.048721
v 0.039079 0.085122 0.048721
v 0.048073 0.109834 0.048721
v 0.054925 0.107340 0.048721
v 0.042344 0.072774 0.048721
v 0.035492 0.075268 0.048721
v 0.004645 0.119624 0.048721
v -0.001046 0.118121 0.048721
v 0.004824 0.108139 0.048721
v 0.009069 0.095608 0.048721
v -0.006023 0.089593 0.048721
v -0.016884 0.097121 0.048721
v -0.014194 0.104511 0.048721
v -0.004531 0.095850 0.048721
v 0.001979 0.097927 0.048721
v -0.008135 0.120440 0.048721
v 0.006677 0.125685 0.048721
v 0.015802 0.119138 0.048721
v 0.013336 0.112364 0.048721
v -0.029042 0.097971 0.048721
v -0.032988 0.103418 0.048721
v -0.043592 0.103267 0.048721
v -0.048978 0.114818 0.048721
v -0.033220 0.121462 0.048721
v -0.026354 0.121404 0.048721
v -0.025682 0.123252 0.048721
v -0.029704 0.131603 0.048721
v -0.042709 0.129885 0.048721
v -0.039991 0.137353 0.048721
v -0.026811 0.137874 0.048721
v -0.018410 0.121913 0.048721
v -0.024882 0.104130 0.048721
v -0.024218 0.101883 0.048721
v -0.019927 0.102413 0.048721
v -0.021440 0.098256 0.048721
v -0.041601 0.113528 0.048721
v -0.038439 0.106884 0.048721
v -0.031398 0.107547 0.048721
v -0.027727 0.117632 0.048721
v -0.070998 0.113242 0.048721
v -0.081084 0.137750 0.048721
v -0.058529 0.149418 0.048721
v -0.050438 0.124939 0.048721
v -0.074765 0.133794 0.048721
v -0.066923 0.119170 0.048721
v -0.053323 0.118928 0.048721
v -0.055733 0.112307 0.048721
v -0.060532 0.143434 0.048721
v -0.072958 0.138280 0.048721
v -0.055559 0.131947 0.048721
v -0.099312 0.154498 0.048721
v -0.099158 0.154442 0.048721
v -0.086012 0.159421 0.048721
v -0.079232 0.152420 0.048721
v -0.085008 0.147809 0.048721
v -0.090165 0.153522 0.048721
v -0.102423 0.145952 0.048721
v -0.109007 0.127861 0.048721
v -0.115859 0.130355 0.048721
v -0.103278 0.164921 0.048721
v -0.096426 0.162427 0.048721
v -0.124004 0.185106 0.048721
v -0.140648 0.139377 0.048721
v -0.148192 0.142123 0.048721
v -0.131548 0.187852 0.048721
v -0.149717 0.194465 0.048721
v -0.147251 0.201239 0.048721
v -0.103370 0.185268 0.048721
v -0.105836 0.178493 0.048721
v -0.016496 0.180588 0.048721
v -0.026581 0.205095 0.048721
v -0.004026 0.216764 0.048721
v 0.004065 0.192285 0.048721
v -0.020262 0.201139 0.048721
v -0.012420 0.186515 0.048721
v 0.001179 0.186273 0.048721
v -0.001230 0.179652 0.048721
v -0.006030 0.210780 0.048721
v -0.018455 0.205625 0.048721
v -0.001057 0.199292 0.048721
v -0.053371 0.194009 0.048721
v -0.063457 0.218517 0.048721
v -0.040902 0.230185 0.048721
v -0.032811 0.205706 0.048721
v -0.057138 0.214561 0.048721
v -0.049296 0.199937 0.048721
v -0.035696 0.199695 0.048721
v -0.038106 0.193074 0.048721
v -0.042905 0.224201 0.048721
v -0.055331 0.219047 0.048721
v -0.037932 0.212714 0.048721
v -0.081685 0.235265 0.048721
v -0.081531 0.235209 0.048721
v -0.068385 0.240188 0.048721
v -0.061605 0.233187 0.048721
v -0.067381 0.228576 0.048721
v -0.072537 0.234289 0.048721
v -0.084795 0.226720 0.048721
v -0.091380 0.208628 0.048721
v -0.098232 0.211122 0.048721
v -0.085651 0.245688 0.048721
v -0.078799 0.243194 0.048721
v -0.109610 0.267050 0.048721
v -0.114906 0.252500 0.048721
v -0.094428 0.245047 0.048721
v -0.096894 0.238272 0.048721
v -0.117372 0.245725 0.048721
v -0.126254 0.221321 0.048721
v -0.133799 0.224067 0.048721
v -0.114689 0.276571 0.048721
v -0.086667 0.266371 0.048721
v -0.089132 0.259597 0.048721
v 0.097366 0.051963 0.037797
v 0.087281 0.076470 0.037797
v 0.109836 0.088138 0.037797
v 0.117927 0.063659 0.037797
v 0.093600 0.072514 0.037797
v 0.101442 0.057890 0.037797
v 0.115041 0.057648 0.037797
v 0.112632 0.051027 0.037797
v 0.107832 0.082155 0.037797
v 0.095407 0.077000 0.037797
v 0.112806 0.070667 0.037797
v 0.069052 0.093218 0.037797
v 0.069206 0.093162 0.037797
v 0.082353 0.098142 0.037797
v 0.089133 0.091140 0.037797
v 0.083357 0.086529 0.037797
v 0.078200 0.092242 0.037797
v 0.065942 0.084673 0.037797
v 0.059357 0.066581 0.037797
v 0.052506 0.069075 0.037797
v 0.065087 0.103641 0.037797
v 0.071938 0.101147 0.037797
v 0.037089 0.079656 0.037797
v 0.025001 0.078301 0.037797
v 0.018084 0.096425 0.037797
v 0.025902 0.117903 0.037797
v 0.032753 0.115410 0.037797
v 0.024768 0.093469 0.037797
v 0.029076 0.083270 0.037797
v 0.039079 0.085122 0.037797
v 0.048073 0.109834 0.037797
v 0.054925 0.107340 0.037797
v 0.042344 0.072774 0.037797
v 0.035492 0.075268 0.037797
v 0.004645 0.119624 0.037797
v -0.001046 0.118121 0.037797
v 0.004824 0.108139 0.037797
v 0.009069 0.095608 0.037797
v -0.006023 0.089593 0.037797
v -0.016884 0.097121 0.037797
v -0.014194 0.104511 0.037797
v -0.004531 0.095850 0.037797
v 0.001979 0.097927 0.037797
v -0.008135 0.120440 0.037797
v 0.006677 0.125685 0.037797
v 0.015802 0.119138 0.037797
v 0.013336 0.112364 0.037797
v -0.029042 0.097971 0.037797
v -0.032988 0.103418 0.037797
v -0.043592 0.103267 0.037797
v -0.048978 0.114818 0.037797
v -0.033220 0.121462 0.037797
v -0.026354 0.121404 0.037797
v -0.025682 0.123252 0.037797
v -0.029704 0.131603 0.037797
v -0.042709 0.129885 0.037797
v -0.039991 0.137353 0.037797
v -0.026811 0.137874 0.037797
v -0.018410 0.121913 0.037797
v -0.024882 0.104130 0.037797
v -0.024218 0.101883 0.037797
v -0.019927 0.102413 0.037797
v -0.021440 0.098256 0.037797
v -0.041601 0.113528 0.037797
v -0.038439 0.106884 0.037797
v -0.031398 0.107547 0.037797
v -0.027727 0.117632 0.037797
v -0.070998 0.113242 0.037797
v -0.081084 0.137750 0.037797
v -0.058529 0.149418 0.037797
v -0.050438 0.124939 0.037797
v -0.074765 0.133794 0.037797
v -0.066923 0.119170 0.037797
v -0.053323 0.118928 0.037797
v -0.055733 0.112307 0.037797
v -0.060532 0.143434 0.037797
v -0.072958 0.138280 0.037797
v -0.055559 0.131947 0.037797
v -0.099312 0.154498 0.037797
v -0.099158 0.154442 0.037797
v -0.086012 0.159421 0.037797
v -0.079232 0.152420 0.037797
v -0.085008 0.147809 0.037797
v -0.090165 0.153522 0.037797
v -0.102423 0.145952 0.037797
v -0.109007 0.127861 0.037797
v -0.115859 0.130355 0.037797
v -0.103278 0.164921 0.037797
v -0.096426 0.162427 0.037797
v -0.124004 0.185106 0.037797
v -0.140648 0.139377 0.037797
v -0.148192 0.142123 0.037797
v -0.131548 0.187852 0.037797
v -0.149717 0.194465 0.037797
v -0.147251 0.201239 0.037797
v -0.103370 0.185268 0.037797
v -0.105836 0.178493 0.037797
v -0.016496 0.180588 0.037797
v -0.026581 0.205095 0.037797
v -0.004026 0.216764 0.037797
v 0.004065 0.192285 0.037797
v -0.020262 0.201139 0.037797
v -0.012420 0.186515 0.037797
v 0.001179 0.186273 0.037797
v -0.001230 0.179652 0.037797
v -0.006030 0.210780 0.037797
v -0.018455 0.205625 0.037797
v -0.001057 0.199292 0.037797
v -0.053371 0.194009 0.037797
v -0.063457 0.218517 0.037797
v -0.040902 0.230185 0.037797
v -0.032811 0.205706 0.037797
v -0.057138 0.214561 0.037797
v -0.049296 0.199937 0.037797
v -0.035696 0.199695 0.037797
v -0.038106 0.193074 0.037797
v -0.042905 0.224201 0.037797
v -0.055331 0.219047 0.037797
v -0.037932 0.212714 0.037797
v -0.081685 0.235265 0.037797
v -0.081531 0.235209 0.037797
v -0.068385 0.240188 0.037797
v -0.061605 0.233187 0.037797
v -0.067381 0.228576 0.037797
v -0.072537 0.234289 0.037797
v -0.084795 0.226720 0.037797
v -0.091380 0.208628 0.037797
v -0.098232 0.211122 0.037797
v -0.085651 0.245688 0.037797
v -0.078799 0.243194 0.037797
v -0.109610 0.267050 0.037797
v -0.114906 0.252500 0.037797
v -0.094428 0.245047 0.037797
v -0.096894 0.238272 0.037797
v -0.117372 0.245725 0.037797
v -0.126254 0.221321 0.037797
v -0.133799 0.224067 0.037797
v -0.114689 0.276571 0.037797
v -0.086667 0.266371 0.037797
v -0.089132 0.259597 0.037797
v -0.109610 0.267050 0.037797
v -0.109610 0.267050 0.048721
v -0.114906 0.252500 0.037797
v -0.114906 0.252500 0.048721
v -0.094428 0.245047 0.037797
v -0.094428 0.245047 0.048721
v -0.096894 0.238272 0.037797
v -0.096894 0.238272 0.048721
v -0.117372 0.245725 0.037797
v -0.117372 0.245725 0.048721
v -0.126254 0.221321 0.037797
v -0.126254 0.221321 0.048721
v -0.133799 0.224067 0.037797
v -0.133799 0.224067 0.048721
v -0.114689 0.276571 0.037797
v -0.114689 0.276571 0.048721
v -0.086667 0.266371 0.037797
v -0.086667 0.266371 0.048721
v -0.089132 0.259597 0.037797
v -0.089132 0.259597 0.048721
v -0.081685 0.235265 0.037797
v -0.081685 0.235265 0.048721
v -0.081531 0.235209 0.037797
v -0.081531 0.235209 0.048721
v -0.068385 0.240188 0.037797
v -0.068385 0.240188 0.048721
v -0.061605 0.233187 0.037797
v -0.061605 0.233187 0.048721
v -0.067381 0.228576 0.037797
v -0.067381 0.228576 0.048721
v -0.072537 0.234289 0.037797
v -0.072537 0.234289 0.048721
v -0.084795 0.226720 0.037797
v -0.084795 0.226720 0.048721
v -0.091380 0.208628 0.037797
v -0.091380 0.208628 0.048721
v -0.098232 0.211122 0.037797
v -0.098232 0.211122 0.048721
v -0.085651 0.245688 0.037797
v -0.085651 0.245688 0.048721
v -0.078799 0.243194 0.037797
v -0.078799 0.243194 0.048721
v -0.053371 0.194009 0.037797
v -0.053371 0.194009 0.048721
v -0.063457 0.218517 0.037797
v -0.063457 0.218517 0.048721
v -0.040902 0.230185 0.037797
v -0.040902 0.230185 0.048721
v -0.032811 0.205706 0.037797
v -0.032811 0.205706 0.048721
v -0.057138 0.214561 0.037797
v -0.057138 0.214561 0.048721
v -0.049296 0.199937 0.037797
v -0.049296 0.199937 0.048721
v -0.035696 0.199695 0.037797
v -0.035696 0.199695 0.048721
v -0.038106 0.193074 0.037797
v -0.038106 0.193074 0.048721
v -0.042905 0.224201 0.037797
v -0.042905 0.224201 0.048721
v -0.055331 0.219047 0.037797
v -0.055331 0.219047 0.048721
v -0.037932 0.212714 0.037797
v -0.037932 0.212714 0.048721
v -0.016496 0.180588 0.037797
v -0.016496 0.180588 0.048721
v -0.026581 0.205095 0.037797
v -0.026581 0.205095 0.048721
v -0.004026 0.216764 0.037797
v -0.004026 0.216764 0.048721
v 0.004065 0.192285 0.037797
v 0.004065 0.192285 0.048721
v -0.020262 0.201139 0.037797
v -0.020262 0.201139 0.048721
v -0.012420 0.186515 0.037797
v -0.012420 0.186515 0.048721
v 0.001179 0.186273 0.037797
v 0.001179 0.186273 0.048721
v -0.001230 0.179652 0.037797
v -0.001230 0.179652 0.048721
v -0.006030 0.210780 0.037797
v -0.006030 0.210780 0.048721
v -0.018455 0.205625 0.037797
v -0.018455 0.205625 0.048721
v -0.001057 0.199292 0.037797
v -0.001057 0.199292 0.048721
v -0.124004 0.185106 0.037797
v -0.124004 0.185106 0.048721
v -0.140648 0.139377 0.037797
v -0.140648 0.139377 0.048721
v -0.148192 0.142123 0.037797
v -0.148192 0.142123 0.048721
v -0.131548 0.187852 0.037797
v -0.131548 0.187852 0.048721
v -0.149717 0.194465 0.037797
v -0.149717 0.194465 0.048721
v -0.147251 0.201239 0.037797
v -0.147251 0.201239 0.048721
v -0.103370 0.185268 0.037797
v -0.103370 0.185268 0.048721
v -0.105836 0.178493 0.037797
v -0.105836 0.178493 0.048721
v -0.099312 0.154498 0.037797
v -0.099312 0.154498 0.048721
v -0.099158 0.154442 0.037797
v -0.099158 0.154442 0.048721
v -0.086012 0.159421 0.037797
v -0.086012 0.159421 0.048721
v -0.079232 0.152420 0.037797
v -0.079232 0.152420 0.048721
v -0.085008 0.147809 0.037797
v -0.085008 0.147809 0.048721
v -0.090165 0.153522 0.037797
v -0.090165 0.153522 0.048721
v -0.102423 0.145952 0.037797
v -0.102423 0.145952 0.048721
v -0.109007 0.127861 0.037797
v -0.109007 0.127861 0.048721
v -0.115859 0.130355 0.037797
v -0.115859 0.130355 0.048721
v -0.103278 0.164921 0.037797
v -0.103278 0.164921 0.048721
v -0.096426 0.162427 0.037797
v -0.096426 0.162427 0.048721
v -0.070998 0.113242 0.037797
v -0.070998 0.113242 0.048721
v -0.081084 0.137750 0.037797
v -0.081084 0.137750 0.048721
v -0.058529 0.149418 0.037797
v -0.058529 0.149418 0.048721
v -0.050438 0.124939 0.037797
v -0.050438 0.124939 0.048721
v -0.074765 0.133794 0.037797
v -0.074765 0.133794 0.048721
v -0.066923 0.119170 0.037797
v -0.066923 0.119170 0.048721
v -0.053323 0.118928 0.037797
v -0.053323 0.118928 0.048721
v -0.055733 0.112307 0.037797
v -0.055733 0.112307 0.048721
v -0.060532 0.143434 0.037797
v -0.060532 0.143434 0.048721
v -0.072958 0.138280 0.037797
v -0.072958 0.138280 0.048721
v -0.055559 0.131947 0.037797
v -0.055559 0.131947 0.048721
v -0.029042 0.097971 0.037797
v -0.029042 0.097971 0.048721
v -0.032988 0.103418 0.037797
v -0.032988 0.103418 0.048721
v -0.043592 0.103267 0.037797
v -0.043592 0.103267 0.048721
v -0.048978 0.114818 0.037797
v -0.048978 0.114818 0.048721
v -0.033220 0.121462 0.037797
v -0.033220 0.121462 0.048721
v -0.026354 0.121404 0.037797
v -0.026354 0.121404 0.048721
v -0.025682 0.123252 0.037797
v -0.025682 0.123252 0.048721
v -0.029704 0.131603 0.037797
v -0.029704 0.131603 0.048721
v -0.042709 0.129885 0.037797
v -0.042709 0.129885 0.048721
v -0.039991 0.137353 0.037797
v -0.039991 0.137353 0.048721
v -0.026811 0.137874 0.037797
v -0.026811 0.137874 0.048721
v -0.018410 0.121913 0.037797
v -0.018410 0.121913 0.048721
v -0.024882 0.104130 0.037797
v -0.024882 0.104130 0.048721
v -0.024218 0.101883 0.037797
v -0.024218 0.101883 0.048721
v -0.019927 0.102413 0.037797
v -0.019927 0.102413 0.048721
v -0.021440 0.098256 0.037797
v -0.021440 0.098256 0.048721
v -0.041601 0.113528 0.037797
v -0.041601 0.113528 0.048721
v -0.038439 0.106884 0.037797
v -0.038439 0.106884 0.048721
v -0.031398 0.107547 0.037797
v -0.031398 0.107547 0.048721
v -0.027727 0.117632 0.037797
v -0.027727 0.117632 0.048721
v 0.004645 0.119624 0.037797
v 0.004645 0.119624 0.048721
v -0.001046 0.118121 0.037797
v -0.001046 0.118121 0.048721
v 0.004824 0.108139 0.037797
v 0.004824 0.108139 0.048721
v 0.009069 0.095608 0.037797
v 0.009069 0.095608 0.048721
v -0.006023 0.089593 0.037797
v -0.006023 0.089593 0.048721
v -0.016884 0.097121 0.037797
v -0.016884 0.097121 0.048721
v -0.014194 0.104511 0.037797
v -0.014194 0.104511 0.048721
v -0.004531 0.095850 0.037797
v -0.004531 0.095850 0.048721
v 0.001979 0.097927 0.037797
v 0.001979 0.097927 0.048721
v -0.008135 0.120440 0.037797
v -0.008135 0.120440 0.048721
v 0.006677 0.125685 0.037797
v 0.006677 0.125685 0.048721
v 0.015802 0.119138 0.037797
v 0.015802 0.119138 0.048721
v 0.013336 0.112364 0.037797
v 0.013336 0.112364 0.048721
v 0.037089 0.079656 0.037797
v 0.037089 0.079656 0.048721
v 0.025001 0.078301 0.037797
v 0.025001 0.078301 0.048721
v 0.018084 0.096425 0.037797
v 0.018084 0.096425 0.048721
v 0.025902 0.117903 0.037797
v 0.025902 0.117903 0.048721
v 0.032753 0.115410 0.037797
v 0.032753 0.115410 0.048721
v 0.024768 0.093469 0.037797
v 0.024768 0.093469 0.048721
v 0.029076 0.083270 0.037797
v 0.029076 0.083270 0.048721
v 0.039079 0.085122 0.037797
v 0.039079 0.085122 0.048721
v 0.048073 0.109834 0.037797
v 0.048073 0.109834 0.048721
v 0.054925 0.107340 0.037797
v 0.054925 0.107340 0.048721
v 0.042344 0.072774 0.037797
v 0.042344 0.072774 0.048721
v 0.035492 0.075268 0.037797
v 0.035492 0.075268 0.048721
v 0.069052 0.093218 0.037797
v 0.069052 0.093218 0.048721
v 0.069206 0.093162 0.037797
v 0.069206 0.093162 0.048721
v 0.082353 0.098142 0.037797
v 0.082353 0.098142 0.048721
v 0.089133 0.091140 0.037797
v 0.089133 0.091140 0.048721
v 0.083357 0.086529 0.037797
v 0.083357 0.086529 0.048721
v 0.078200 0.092242 0.037797
v 0.078200 0.092242 0.048721
v 0.065942 0.084673 0.037797
v 0.065942 0.084673 0.048721
v 0.059357 0.066581 0.037797
v 0.059357 0.066581 0.048721
v 0.052506 0.069075 0.037797
v 0.052506 0.069075 0.048721
v 0.065087 0.103641 0.037797
v 0.065087 0.103641 0.048721
v 0.071938 0.101147 0.037797
v 0.071938 0.101147 0.048721
v 0.097366 0.051963 0.037797
v 0.097366 0.051963 0.048721
v 0.087281 0.076470 0.037797
v 0.087281 0.076470 0.048721
v 0.109836 0.088138 0.037797
v 0.109836 0.088138 0.048721
v 0.117927 0.063659 0.037797
v 0.117927 0.063659 0.048721
v 0.093600 0.072514 0.037797
v 0.093600 0.072514 0.048721
v 0.101442 0.057890 0.037797
v 0.101442 0.057890 0.048721
v 0.115041 0.057648 0.037797
v 0.115041 0.057648 0.048721
v 0.112632 0.051027 0.037797
v 0.112632 0.051027 0.048721
v 0.107832 0.082155 0.037797
v 0.107832 0.082155 0.048721
v 0.095407 0.077000 0.037797
v 0.095407 0.077000 0.048721
v 0.112806 0.070667 0.037797
v 0.112806 0.070667 0.048721
vn -0.0000 -0.0000 1.0000
vn -0.0000 -0.0000 -1.0000
vn 0.4226 -0.9063 -0.0000
vn 0.9063 0.4226 -0.0000
vn -0.9063 -0.4226 -0.0000
vn -0.4226 0.9063 -0.0000
vn -0.0065 1.0000 -0.0000
vn 0.2179 0.9760 -0.0000
vn 0.9980 -0.0638 -0.0000
vn -0.0813 -0.9967 -0.0000
vn -0.1412 -0.9900 -0.0000
vn 0.7755 -0.6314 -0.0000
vn -0.5817 -0.8134 -0.0000
vn -0.9389 0.3443 -0.0000
vn 0.3775 0.9260 -0.0000
vn 0.6965 -0.7176 -0.0000
vn 0.7559 -0.6547 -0.0000
vn 0.5211 0.8535 -0.0000
vn 0.8242 0.5663 -0.0000
vn 0.5482 -0.8363 -0.0000
vn -0.3751 -0.9270 -0.0000
vn 0.9998 0.0221 -0.0000
vn -0.7278 0.6858 -0.0000
vn -0.4378 -0.8991 -0.0000
vn -0.4482 -0.8939 -0.0000
vn -0.5313 -0.8472 -0.0000
vn -0.9332 0.3595 -0.0000
vn -0.1941 0.9810 -0.0000
vn -0.5701 0.8216 -0.0000
vn -0.9988 -0.0499 -0.0000
vn -0.4753 -0.8798 -0.0000
vn -0.7797 -0.6261 -0.0000
vn -0.5896 0.8077 -0.0000
vn 0.4998 0.8661 -0.0000
vn 0.9977 0.0677 -0.0000
vn 0.9995 -0.0308 -0.0000
vn 0.5481 0.8364 -0.0000
vn 0.7823 0.6229 -0.0000
vn 0.5888 -0.8083 -0.0000
vn 0.9133 -0.4073 -0.0000
vn 0.4937 0.8696 -0.0000
vn -0.6114 0.7913 -0.0000
vn -0.7285 -0.6851 -0.0000
vn -0.2171 -0.9761 -0.0000
vn 0.9247 -0.3807 -0.0000
vn 0.9093 0.4160 -0.0000
vn 0.9079 -0.4191 -0.0000
vn -0.1132 -0.9936 -0.0000
vn -0.9530 -0.3030 -0.0000
vn -0.2430 0.9700 -0.0000
vn 0.2094 0.9778 -0.0000
vn -0.9131 0.4076 -0.0000
vn -0.9195 0.3932 -0.0000
vn 0.1405 0.9901 -0.0000
vn 0.9554 0.2952 -0.0000
vn 0.2599 -0.9656 -0.0000
vn -0.7859 -0.6184 -0.0000
vn -0.5204 -0.8539 -0.0000
vn -1.0000 -0.0078 -0.0000
vn 0.9997 0.0253 -0.0000
vn 0.4742 0.8804 -0.0000
vn -0.6461 0.7633 -0.0000
vt 0.100000 0.000000
vt 0.800000 0.000000
vt 0.200000 0.000000
vt 0.300000 0.000000
vt 0.900000 0.000000
vt 1.000000 0.000000
vt 0.000000 0.000000
vt 0.400000 0.000000
vt 0.500000 0.000000
vt 0.700000 0.000000
vt 0.600000 0.000000
vt 0.181818 0.000000
vt 0.363636 0.000000
vt 0.272727 0.000000
vt 0.454545 0.000000
vt 0.636364 0.000000
vt 0.818182 0.000000
vt 0.727273 0.000000
vt 0.909091 0.000000
vt 0.090909 0.000000
vt 0.545455 0.000000
vt 0.750000 0.000000
vt 0.916667 0.000000
vt 0.833333 0.000000
vt 0.083333 0.000000
vt 0.166667 0.000000
vt 0.666667 0.000000
vt 0.250000 0.000000
vt 0.416667 0.000000
vt 0.583333 0.000000
vt 0.333333 0.000000
vt 0.473684 0.000000
vt 0.368421 0.000000
vt 0.526316 0.000000
vt 0.578947 0.000000
vt 0.421053 0.000000
vt 0.315789 0.000000
vt 0.631579 0.000000
vt 0.263158 0.000000
vt 0.210526 0.000000
vt 0.157895 0.000000
vt 0.842105 0.000000
vt 0.947368 0.000000
vt 0.894737 0.000000
vt 0.105263 0.000000
vt 0.684211 0.000000
vt 0.789474 0.000000
vt 0.736842 0.000000
vt 0.052632 0.000000
vt 0.571429 0.000000
vt 0.857143 0.000000
vt 0.714286 0.000000
vt 0.428571 0.000000
vt 0.285714 0.000000
vt 0.142857 0.000000
vt 0.777778 0.000000
vt 0.888889 0.000000
vt 0.111111 0.000000
vt 0.444444 0.000000
vt 0.222222 0.000000
vt 0.555556 0.000000
vt 0.000000 1.000000
vt 0.100000 1.000000
vt 0.200000 1.000000
vt 0.300000 1.000000
vt 0.400000 1.000000
vt 0.500000 1.000000
vt 0.600000 1.000000
vt 0.700000 1.000000
vt 0.800000 1.000000
vt 0.900000 1.000000
vt 1.000000 1.000000
vt 0.090909 1.000000
vt 0.181818 1.000000
vt 0.272727 1.000000
vt 0.363636 1.000000
vt 0.454545 1.000000
vt 0.545455 1.000000
vt 0.636364 1.000000
vt 0.727273 1.000000
vt 0.818182 1.000000
vt 0.909091 1.000000
vt 0.125000 1.000000
vt 0.125000 0.000000
vt 0.250000 1.000000
vt 0.375000 1.000000
vt 0.375000 0.000000
vt 0.625000 1.000000
vt 0.625000 0.000000
vt 0.750000 1.000000
vt 0.875000 1.000000
vt 0.875000 0.000000
vt 0.333333 1.000000
vt 0.666667 1.000000
vt 0.062500 1.000000
vt 0.062500 0.000000
vt 0.187500 1.000000
vt 0.187500 0.000000
vt 0.312500 1.000000
vt 0.312500 0.000000
vt 0.437500 1.000000
vt 0.437500 0.000000
vt 0.562500 1.000000
vt 0.562500 0.000000
vt 0.687500 1.000000
vt 0.687500 0.000000
vt 0.812500 1.000000
vt 0.812500 0.000000
vt 0.937500 1.000000
vt 0.937500 0.000000
vt 0.076923 1.000000
vt 0.076923 0.000000
vt 0.153846 1.000000
vt 0.153846 0.000000
vt 0.230769 1.000000
vt 0.230769 0.000000
vt 0.307692 1.000000
vt 0.307692 0.000000
vt 0.384615 1.000000
vt 0.384615 0.000000
vt 0.461538 1.000000
vt 0.461538 0.000000
vt 0.538462 1.000000
vt 0.538462 0.000000
vt 0.615385 1.000000
vt 0.615385 0.000000
vt 0.692308 1.000000
vt 0.692308 0.000000
vt 0.769231 1.000000
vt 0.769231 0.000000
vt 0.846154 1.000000
vt 0.846154 0.000000
vt 0.923077 1.000000
vt 0.923077 0.000000
vt 0.083333 1.000000
vt 0.166667 1.000000
vt 0.416667 1.000000
vt 0.583333 1.000000
vt 0.833333 1.000000
vt 0.916667 1.000000
s 0
usemtl Material.001
f 20/40/14 27/41/14 21/42/14
f 27/41/14 22/43/14 21/42/14
f 20/40/14 28/44/14 27/41/14
f 29/45/14 22/43/14 27/41/14
f 20/40/14 29/45/14 28/44/14
f 20/40/14 22/43/14 29/45/14
f 19/46/14 23/47/14 20/40/14
f 23/47/14 22/43/14 20/40/14
f 19/46/14 24/48/14 23/47/14
f 24/48/14 26/49/14 25/50/14
f 19/46/14 26/49/14 24/48/14
f 31/40/14 33/43/14 32/42/14
f 38/41/14 40/45/14 39/44/14
f 38/41/14 30/46/14 40/45/14
f 31/40/14 35/48/14 33/43/14
f 35/48/14 34/47/14 33/43/14
f 31/40/14 36/50/14 35/48/14
f 38/41/14 31/40/14 30/46/14
f 38/41/14 36/50/14 31/40/14
f 38/41/14 37/49/14 36/50/14
f 43/51/14 45/52/14 44/53/14
f 43/51/14 46/54/14 45/52/14
f 48/55/14 50/56/14 49/57/14
f 48/55/14 51/58/14 50/56/14
f 42/59/14 46/54/14 43/51/14
f 42/59/14 47/60/14 46/54/14
f 47/60/14 41/46/14 48/55/14
f 41/46/14 51/58/14 48/55/14
f 42/59/14 41/46/14 47/60/14
f 52/45/14 51/58/14 41/46/14
f 62/61/14 64/62/14 63/63/14
f 62/61/14 53/46/14 64/62/14
f 53/46/14 65/45/14 64/62/14
f 62/61/14 54/64/14 53/46/14
f 62/61/14 55/65/14 54/64/14
f 61/66/14 55/65/14 62/61/14
f 61/66/14 56/67/14 55/65/14
f 58/68/14 60/69/14 59/48/14
f 61/66/14 57/70/14 56/67/14
f 60/69/14 57/70/14 61/66/14
f 58/68/14 57/70/14 60/69/14
f 75/71/14 73/72/14 76/73/14
f 73/72/14 77/74/14 76/73/14
f 74/75/14 73/72/14 75/71/14
f 72/76/14 77/74/14 73/72/14
f 72/76/14 78/77/14 77/74/14
f 71/78/14 78/77/14 72/76/14
f 70/79/14 85/45/14 71/78/14
f 85/45/14 78/77/14 71/78/14
f 69/80/14 85/45/14 70/79/14
f 69/80/14 82/81/14 85/45/14
f 84/82/14 78/77/14 85/45/14
f 69/80/14 83/83/14 82/81/14
f 68/84/14 83/83/14 69/80/14
f 83/83/14 78/77/14 84/82/14
f 79/85/14 81/86/14 80/87/14
f 83/83/14 79/85/14 78/77/14
f 83/83/14 81/86/14 79/85/14
f 68/84/14 67/88/14 83/83/14
f 67/88/14 81/86/14 83/83/14
f 66/46/14 81/86/14 67/88/14
f 87/40/14 94/41/14 88/42/14
f 94/41/14 89/43/14 88/42/14
f 87/40/14 95/44/14 94/41/14
f 96/45/14 89/43/14 94/41/14
f 87/40/14 96/45/14 95/44/14
f 87/40/14 89/43/14 96/45/14
f 86/46/14 90/47/14 87/40/14
f 90/47/14 89/43/14 87/40/14
f 86/46/14 91/48/14 90/47/14
f 91/48/14 93/49/14 92/50/14
f 86/46/14 93/49/14 91/48/14
f 98/40/14 100/43/14 99/42/14
f 105/41/14 107/45/14 106/44/14
f 105/41/14 97/46/14 107/45/14
f 98/40/14 102/48/14 100/43/14
f 102/48/14 101/47/14 100/43/14
f 98/40/14 103/50/14 102/48/14
f 105/41/14 98/40/14 97/46/14
f 105/41/14 103/50/14 98/40/14
f 105/41/14 104/49/14 103/50/14
f 112/89/14 114/90/14 113/91/14
f 112/89/14 115/45/14 114/90/14
f 111/92/14 115/45/14 112/89/14
f 110/93/14 108/46/14 111/92/14
f 108/46/14 115/45/14 111/92/14
f 110/93/14 109/94/14 108/46/14
f 117/40/14 124/41/14 118/42/14
f 124/41/14 119/43/14 118/42/14
f 117/40/14 125/44/14 124/41/14
f 126/45/14 119/43/14 124/41/14
f 117/40/14 126/45/14 125/44/14
f 117/40/14 119/43/14 126/45/14
f 116/46/14 120/47/14 117/40/14
f 120/47/14 119/43/14 117/40/14
f 116/46/14 121/48/14 120/47/14
f 121/48/14 123/49/14 122/50/14
f 116/46/14 123/49/14 121/48/14
f 128/40/14 135/41/14 129/42/14
f 135/41/14 130/43/14 129/42/14
f 128/40/14 136/44/14 135/41/14
f 137/45/14 130/43/14 135/41/14
f 128/40/14 137/45/14 136/44/14
f 128/40/14 130/43/14 137/45/14
f 127/46/14 131/47/14 128/40/14
f 131/47/14 130/43/14 128/40/14
f 127/46/14 132/48/14 131/47/14
f 132/48/14 134/49/14 133/50/14
f 127/46/14 134/49/14 132/48/14
f 139/40/14 141/43/14 140/42/14
f 146/41/14 148/45/14 147/44/14
f 146/41/14 138/46/14 148/45/14
f 139/40/14 143/48/14 141/43/14
f 143/48/14 142/47/14 141/43/14
f 139/40/14 144/50/14 143/48/14
f 146/41/14 139/40/14 138/46/14
f 146/41/14 144/50/14 139/40/14
f 146/41/14 145/49/14 144/50/14
f 155/66/14 149/46/14 156/95/14
f 149/46/14 157/96/14 156/95/14
f 149/46/14 158/45/14 157/96/14
f 155/66/14 150/97/14 149/46/14
f 155/66/14 153/98/14 150/97/14
f 153/98/14 151/99/14 150/97/14
f 153/98/14 152/70/14 151/99/14
f 155/66/14 154/100/14 153/98/14
f 160/40/15 161/42/15 167/41/15
f 167/41/15 161/42/15 162/43/15
f 160/40/15 167/41/15 168/44/15
f 169/45/15 167/41/15 162/43/15
f 160/40/15 168/44/15 169/45/15
f 160/40/15 169/45/15 162/43/15
f 159/46/15 160/40/15 163/47/15
f 163/47/15 160/40/15 162/43/15
f 159/46/15 163/47/15 164/48/15
f 164/48/15 165/50/15 166/49/15
f 159/46/15 164/48/15 166/49/15
f 171/40/15 172/42/15 173/43/15
f 178/41/15 179/44/15 180/45/15
f 178/41/15 180/45/15 170/46/15
f 171/40/15 173/43/15 175/48/15
f 175/48/15 173/43/15 174/47/15
f 171/40/15 175/48/15 176/50/15
f 178/41/15 170/46/15 171/40/15
f 178/41/15 171/40/15 176/50/15
f 178/41/15 176/50/15 177/49/15
f 183/51/15 184/53/15 185/52/15
f 183/51/15 185/52/15 186/54/15
f 188/55/15 189/57/15 190/56/15
f 188/55/15 190/56/15 191/58/15
f 182/59/15 183/51/15 186/54/15
f 182/59/15 186/54/15 187/60/15
f 187/60/15 188/55/15 181/46/15
f 181/46/15 188/55/15 191/58/15
f 182/59/15 187/60/15 181/46/15
f 192/45/15 181/46/15 191/58/15
f 202/61/15 203/63/15 204/62/15
f 202/61/15 204/62/15 193/46/15
f 193/46/15 204/62/15 205/45/15
f 202/61/15 193/46/15 194/64/15
f 202/61/15 194/64/15 195/65/15
f 201/66/15 202/61/15 195/65/15
f 201/66/15 195/65/15 196/67/15
f 198/68/15 199/48/15 200/69/15
f 201/66/15 196/67/15 197/70/15
f 200/69/15 201/66/15 197/70/15
f 198/68/15 200/69/15 197/70/15
f 215/71/15 216/73/15 213/72/15
f 213/72/15 216/73/15 217/74/15
f 214/75/15 215/71/15 213/72/15
f 212/76/15 213/72/15 217/74/15
f 212/76/15 217/74/15 218/77/15
f 211/78/15 212/76/15 218/77/15
f 210/79/15 211/78/15 225/45/15
f 225/45/15 211/78/15 218/77/15
f 209/80/15 210/79/15 225/45/15
f 209/80/15 225/45/15 222/81/15
f 224/82/15 225/45/15 218/77/15
f 209/80/15 222/81/15 223/83/15
f 208/84/15 209/80/15 223/83/15
f 223/83/15 224/82/15 218/77/15
f 219/85/15 220/87/15 221/86/15
f 223/83/15 218/77/15 219/85/15
f 223/83/15 219/85/15 221/86/15
f 208/84/15 223/83/15 207/88/15
f 207/88/15 223/83/15 221/86/15
f 206/46/15 207/88/15 221/86/15
f 227/40/15 228/42/15 234/41/15
f 234/41/15 228/42/15 229/43/15
f 227/40/15 234/41/15 235/44/15
f 236/45/15 234/41/15 229/43/15
f 227/40/15 235/44/15 236/45/15
f 227/40/15 236/45/15 229/43/15
f 226/46/15 227/40/15 230/47/15
f 230/47/15 227/40/15 229/43/15
f 226/46/15 230/47/15 231/48/15
f 231/48/15 232/50/15 233/49/15
f 226/46/15 231/48/15 233/49/15
f 238/40/15 239/42/15 240/43/15
f 245/41/15 246/44/15 247/45/15
f 245/41/15 247/45/15 237/46/15
f 238/40/15 240/43/15 242/48/15
f 242/48/15 240/43/15 241/47/15
f 238/40/15 242/48/15 243/50/15
f 245/41/15 237/46/15 238/40/15
f 245/41/15 238/40/15 243/50/15
f 245/41/15 243/50/15 244/49/15
f 252/89/15 253/91/15 254/90/15
f 252/89/15 254/90/15 255/45/15
f 251/92/14 252/89/14 255/45/14
f 250/93/15 251/92/15 248/46/15
f 248/46/14 251/92/14 255/45/14
f 250/93/15 248/46/15 249/94/15
f 257/40/15 258/42/15 264/41/15
f 264/41/15 258/42/15 259/43/15
f 257/40/15 264/41/15 265/44/15
f 266/45/15 264/41/15 259/43/15
f 257/40/15 265/44/15 266/45/15
f 257/40/15 266/45/15 259/43/15
f 256/46/15 257/40/15 260/47/15
f 260/47/15 257/40/15 259/43/15
f 256/46/15 260/47/15 261/48/15
f 261/48/15 262/50/15 263/49/15
f 256/46/15 261/48/15 263/49/15
f 268/40/15 269/42/15 275/41/15
f 275/41/15 269/42/15 270/43/15
f 268/40/15 275/41/15 276/44/15
f 277/45/15 275/41/15 270/43/15
f 268/40/15 276/44/15 277/45/15
f 268/40/15 277/45/15 270/43/15
f 267/46/15 268/40/15 271/47/15
f 271/47/15 268/40/15 270/43/15
f 267/46/15 271/47/15 272/48/15
f 272/48/15 273/50/15 274/49/15
f 267/46/15 272/48/15 274/49/15
f 279/40/15 280/42/15 281/43/15
f 286/41/15 287/44/15 288/45/15
f 286/41/15 288/45/15 278/46/15
f 279/40/15 281/43/15 283/48/15
f 283/48/15 281/43/15 282/47/15
f 279/40/15 283/48/15 284/50/15
f 286/41/15 278/46/15 279/40/15
f 286/41/15 279/40/15 284/50/15
f 286/41/15 284/50/15 285/49/15
f 295/66/15 296/95/15 289/46/15
f 289/46/15 296/95/15 297/96/15
f 289/46/15 297/96/15 298/45/15
f 295/66/15 289/46/15 290/97/15
f 295/66/15 290/97/15 293/98/15
f 293/98/15 290/97/15 291/99/15
f 293/98/15 291/99/15 292/70/15
f 295/66/15 293/98/15 294/100/15
s 1
f 300/101/16 302/102/17 301/40/17 299/46/16
f 302/102/17 304/103/17 303/42/17 301/40/17
f 304/103/17 306/104/16 305/43/16 303/42/17
f 306/104/16 308/105/16 307/47/16 305/43/16
f 308/105/16 310/106/16 309/48/16 307/47/16
f 310/106/16 312/107/18 311/50/18 309/48/16
f 312/107/18 314/108/19 313/49/19 311/50/18
f 314/108/19 316/109/17 315/41/17 313/49/19
f 316/109/17 318/110/16 317/44/16 315/41/17
f 318/110/16 300/111/16 299/45/16 317/44/16
f 320/101/17 322/112/20 321/59/20 319/46/17
f 322/112/20 324/113/21 323/51/21 321/59/20
f 324/113/21 326/114/22 325/53/22 323/51/21
f 326/114/22 328/115/23 327/52/23 325/53/22
f 328/115/23 330/116/24 329/54/24 327/52/23
f 330/116/24 332/117/25 331/60/25 329/54/24
f 332/117/25 334/118/16 333/55/16 331/60/25
f 334/118/16 336/119/18 335/57/18 333/55/16
f 336/119/18 338/120/19 337/56/19 335/57/18
f 338/120/19 340/121/17 339/58/17 337/56/19
f 340/121/17 320/111/17 319/45/17 339/58/17
f 342/101/26 344/122/27 343/123/27 341/46/26
f 344/122/27 346/124/28 345/67/28 343/123/27
f 346/124/28 348/125/29 347/126/29 345/67/28
f 348/125/29 350/106/30 349/48/30 347/126/29
f 350/106/30 352/127/31 351/128/31 349/48/30
f 352/127/31 354/129/32 353/61/32 351/128/31
f 354/129/32 356/130/33 355/131/33 353/61/32
f 356/130/33 342/111/26 341/45/26 355/131/33
f 358/101/34 360/132/35 359/70/35 357/46/34
f 360/132/35 362/133/36 361/66/36 359/70/35
f 362/133/36 358/111/34 357/45/34 361/66/36
f 364/101/26 366/122/27 365/123/27 363/46/26
f 366/122/27 368/124/28 367/67/28 365/123/27
f 368/124/28 370/125/29 369/126/29 367/67/28
f 370/125/29 372/106/30 371/48/30 369/126/29
f 372/106/30 374/127/31 373/128/31 371/48/30
f 374/127/31 376/129/32 375/61/32 373/128/31
f 376/129/32 378/130/33 377/131/33 375/61/32
f 378/130/33 364/111/26 363/45/26 377/131/33
f 380/101/34 382/132/35 381/70/35 379/46/34
f 382/132/35 384/133/36 383/66/36 381/70/35
f 384/133/36 380/111/34 379/45/34 383/66/36
f 386/101/16 388/122/16 387/123/16 385/46/16
f 388/122/16 390/124/18 389/67/18 387/123/16
f 390/124/18 392/125/18 391/126/18 389/67/18
f 392/125/18 394/106/18 393/48/18 391/126/18
f 394/106/18 396/127/19 395/128/19 393/48/18
f 396/127/19 398/129/17 397/61/17 395/128/19
f 398/129/17 400/130/16 399/131/16 397/61/17
f 400/130/16 386/111/16 385/45/16 399/131/16
f 402/101/17 404/112/20 403/59/20 401/46/17
f 404/112/20 406/113/21 405/51/21 403/59/20
f 406/113/21 408/114/22 407/53/22 405/51/21
f 408/114/22 410/115/23 409/52/23 407/53/22
f 410/115/23 412/116/24 411/54/24 409/52/23
f 412/116/24 414/117/25 413/60/25 411/54/24
f 414/117/25 416/118/16 415/55/16 413/60/25
f 416/118/16 418/119/18 417/57/18 415/55/16
f 418/119/18 420/120/19 419/56/19 417/57/18
f 420/120/19 422/121/17 421/58/17 419/56/19
f 422/121/17 402/111/17 401/45/17 421/58/17
f 424/101/26 426/122/27 425/123/27 423/46/26
f 426/122/27 428/124/28 427/67/28 425/123/27
f 428/124/28 430/125/29 429/126/29 427/67/28
f 430/125/29 432/106/30 431/48/30 429/126/29
f 432/106/30 434/127/31 433/128/31 431/48/30
f 434/127/31 436/129/32 435/61/32 433/128/31
f 436/129/32 438/130/33 437/131/33 435/61/32
f 438/130/33 424/111/26 423/45/26 437/131/33
f 440/101/34 442/132/35 441/70/35 439/46/34
f 442/132/35 444/133/36 443/66/36 441/70/35
f 444/133/36 440/111/34 439/45/34 443/66/36
f 446/101/37 448/134/38 447/135/38 445/46/37
f 448/134/38 450/122/39 449/123/39 447/135/38
f 450/122/39 452/136/40 451/137/40 449/123/39
f 452/136/40 454/124/41 453/67/41 451/137/40
f 454/124/41 456/138/42 455/139/42 453/67/41
f 456/138/42 458/125/43 457/126/43 455/139/42
f 458/125/43 460/140/44 459/141/44 457/126/43
f 460/140/44 462/106/45 461/48/45 459/141/44
f 462/106/45 464/142/46 463/143/46 461/48/45
f 464/142/46 466/127/47 465/128/47 463/143/46
f 466/127/47 468/144/48 467/145/48 465/128/47
f 468/144/48 470/129/49 469/61/49 467/145/48
f 470/129/49 472/146/50 471/147/50 469/61/49
f 472/146/50 474/130/51 473/131/51 471/147/50
f 474/130/51 476/148/52 475/149/52 473/131/51
f 476/148/52 446/111/37 445/45/37 475/149/52
f 478/101/53 480/124/54 479/67/54 477/46/53
f 480/124/54 482/106/55 481/48/55 479/67/54
f 482/106/55 484/129/56 483/61/56 481/48/55
f 484/129/56 478/111/53 477/45/53 483/61/56
f 486/101/57 488/150/58 487/151/58 485/46/57
f 488/150/58 490/152/59 489/153/59 487/151/58
f 490/152/59 492/154/60 491/155/60 489/153/59
f 492/154/60 494/156/61 493/157/61 491/155/60
f 494/156/61 496/158/62 495/159/62 493/157/61
f 496/158/62 498/160/63 497/161/63 495/159/62
f 498/160/63 500/162/64 499/163/64 497/161/63
f 500/162/64 502/164/65 501/165/65 499/163/64
f 502/164/65 504/166/66 503/167/66 501/165/65
f 504/166/66 506/168/67 505/169/67 503/167/66
f 506/168/67 508/170/68 507/171/68 505/169/67
f 508/170/68 510/172/69 509/173/69 507/171/68
f 510/172/69 486/111/57 485/45/57 509/173/69
f 512/101/70 514/174/71 513/64/71 511/46/70
f 514/174/71 516/175/72 515/65/72 513/64/71
f 516/175/72 518/124/19 517/67/19 515/65/72
f 518/124/19 520/132/17 519/70/17 517/67/19
f 520/132/17 522/176/73 521/68/73 519/70/17
f 522/176/73 524/106/74 523/48/74 521/68/73
f 524/106/74 526/177/75 525/69/75 523/48/74
f 526/177/75 528/133/19 527/66/19 525/69/75
f 528/133/19 530/129/17 529/61/17 527/66/19
f 530/129/17 532/178/16 531/63/16 529/61/17
f 532/178/16 534/179/18 533/62/18 531/63/16
f 534/179/18 512/111/70 511/45/70 533/62/18
f 536/101/17 538/112/20 537/59/20 535/46/17
f 538/112/20 540/113/21 539/51/21 537/59/20
f 540/113/21 542/114/22 541/53/22 539/51/21
f 542/114/22 544/115/23 543/52/23 541/53/22
f 544/115/23 546/116/24 545/54/24 543/52/23
f 546/116/24 548/117/25 547/60/25 545/54/24
f 548/117/25 550/118/16 549/55/16 547/60/25
f 550/118/16 552/119/18 551/57/18 549/55/16
f 552/119/18 554/120/19 553/56/19 551/57/18
f 554/120/19 556/121/17 555/58/17 553/56/19
f 556/121/17 536/111/17 535/45/17 555/58/17
f 558/101/26 560/122/27 559/123/27 557/46/26
f 560/122/27 562/124/28 561/67/28 559/123/27
f 562/124/28 564/125/29 563/126/29 561/67/28
f 564/125/29 566/106/30 565/48/30 563/126/29
f 566/106/30 568/127/31 567/128/31 565/48/30
f 568/127/31 570/129/32 569/61/32 567/128/31
f 570/129/32 572/130/33 571/131/33 569/61/32
f 572/130/33 558/111/26 557/45/26 571/131/33
f 574/101/34 576/132/35 575/70/35 573/46/34
f 576/132/35 578/133/36 577/66/36 575/70/35
f 578/133/36 574/111/34 573/45/34 577/66/36
